<?xml version="1.0" encoding="utf-8"?>
<!-- Generator: Adobe Illustrator 17.1.0, SVG Export Plug-In . SVG Version: 6.00 Build 0)  -->
<!DOCTYPE svg PUBLIC "-//W3C//DTD SVG 1.1//EN" "http://www.w3.org/Graphics/SVG/1.1/DTD/svg11.dtd">
<svg version="1.1" id="Layer_1" xmlns="http://www.w3.org/2000/svg" xmlns:xlink="http://www.w3.org/1999/xlink" x="0px" y="0px"
	 viewBox="0 0 153.7 63" enable-background="new 0 0 153.7 63" xml:space="preserve">
<path fill-rule="evenodd" clip-rule="evenodd" d="M106.4,59.3V43.9C101.8,54.6,91.7,62,80,62C68.6,62,58.8,55.1,54,44.9l4.8,14.4
	H41.6L39,51.2H21.8v-1l-2.6,9.1H2L20.5,4h19.8l11.3,33.7c-0.5-2.2-0.7-4.4-0.7-6.7c0-17.1,13-31,29.1-31c11.7,0,21.9,7.4,26.4,18.1
	V4H150v12.1h-26.4v6.8h-17.2h-7.9h-8.3c-1.1-4.7-5.3-8.1-10.2-8.1c-5.8,0-10.6,4.8-10.6,10.6v11.1c0,5.9,4.7,10.6,10.6,10.6
	c5,0,9.1-3.5,10.2-8.1h8.3h7.9h17.2v6.8H150v13.5H106.4z M29.7,22.9l-5.1,17.5h10.8L29.7,22.9z M123.6,36.4H150v2.7h-26.4V36.4z
	 M123.6,29.7H150v2.7h-26.4V29.7z M123.6,22.9H150v2.7h-26.4V22.9z"/>
</svg>
