<?xml version="1.0" standalone="no"?>
<!DOCTYPE svg PUBLIC "-//W3C//DTD SVG 1.1//EN" "http://www.w3.org/Graphics/SVG/1.1/DTD/svg11.dtd" >
<svg xmlns="http://www.w3.org/2000/svg">
<metadata></metadata>
<defs>
<font id="sanchezblack" horiz-adv-x="1275" >
<font-face units-per-em="2048" ascent="1536" descent="-512" />
<missing-glyph horiz-adv-x="471" />
<glyph unicode="&#xfb01;" horiz-adv-x="1511" d="M51 31v213q0 30 31 30h90v459h-90q-31 0 -31 31v213q0 31 31 31h90v63q0 205 106 311.5t310 106.5q62 0 114.5 -12.5t94 -36.5t63 -40.5t50.5 -42.5q7 -6 10 -9q26 -26 10 -45l-123 -162q-20 -23 -45 -4q-19 16 -32 24.5t-40 16.5t-63 8q-59 0 -84 -33t-25 -82v-63h184h9 h645q30 0 30 -31v-703h74q31 0 31 -30v-213q0 -31 -31 -31h-508q-30 0 -30 31v213q0 30 30 30h90v459h-260h-4h-67h-6h-187v-459h162q31 0 31 -30v-213q0 -31 -31 -31h-598q-31 0 -31 31zM1010 1290q0 80 56.5 136.5t135.5 56.5q80 0 136.5 -56.5t56.5 -136.5 q0 -79 -56.5 -135.5t-136.5 -56.5t-136 56t-56 136z" />
<glyph unicode="&#xfb02;" horiz-adv-x="1521" d="M51 31v213q0 30 31 30h90v459h-90q-31 0 -31 31v213q0 31 31 31h90v63q0 205 106 311.5t310 106.5q62 0 114.5 -12.5t94 -36.5t63 -40.5t50.5 -42.5q7 -6 10 -9q26 -26 10 -45l-123 -162q-20 -23 -45 -4q-19 16 -32 24.5t-40 16.5t-63 8q-59 0 -84 -33t-25 -82v-63h260 q31 0 31 -31v-213q0 -31 -31 -31h-260v-459h162q31 0 31 -30v-213q0 -31 -31 -31h-598q-31 0 -31 31zM901 31v213q0 30 31 30h90v924h-37q-31 0 -31 31v213q0 31 31 31h350q31 0 31 -31v-1168h74q30 0 30 -30v-213q0 -31 -30 -31h-508q-31 0 -31 31z" />
<glyph horiz-adv-x="0" />
<glyph unicode="&#xd;" horiz-adv-x="2048" />
<glyph unicode=" "  horiz-adv-x="471" />
<glyph unicode="&#x09;" horiz-adv-x="471" />
<glyph unicode="&#xa0;" horiz-adv-x="471" />
<glyph unicode="!" horiz-adv-x="487" d="M51 -76q0 80 56.5 136.5t136.5 56.5q79 0 135.5 -56.5t56.5 -136.5t-56 -136t-136 -56t-136.5 56.5t-56.5 135.5zM68 334v1192q0 30 30 30h283q31 0 31 -30v-1192q0 -31 -31 -31h-283q-30 0 -30 31z" />
<glyph unicode="&#x22;" horiz-adv-x="755" d="M51 1499q0 15 11 26t26 11h199q15 0 26.5 -11t10.5 -26l-23 -381q-2 -15 -12 -26t-25 -11h-155q-15 0 -26 11t-11 26zM432 1499q0 15 11 26t26 11h199q15 0 26.5 -11t10.5 -26l-23 -381q-2 -15 -12 -26t-25 -11h-156q-15 0 -25.5 11t-10.5 26z" />
<glyph unicode="#" d="M51 219v164q0 31 31 31h172l45 153h-117q-30 0 -30 31v164q0 31 30 31h183l47 163q9 31 39 31h221q31 0 22 -31l-47 -163h162l47 163q9 31 39 31h221q32 0 23 -31l-47 -163h102q31 0 31 -31v-164q0 -31 -31 -31h-168l-45 -153h113q30 0 30 -31v-164q0 -31 -30 -31h-176 l-50 -172q-9 -30 -39 -30h-221q-31 0 -22 30l49 172h-162l-49 -172q-9 -30 -39 -30h-221q-32 0 -23 30l49 172h-108q-31 0 -31 31zM537 414h161l45 153h-161z" />
<glyph unicode="$" horiz-adv-x="1351" d="M51 94v443q0 30 31 30h305q31 0 31 -30v-27q3 -11 8.5 -26t26 -45.5t48.5 -54t79 -42t114 -18.5q65 0 106.5 31t41.5 77q0 33 -26 59t-70 44.5t-101.5 35t-120.5 35t-126 41t-120.5 56.5t-101.5 77.5t-70 108.5t-26 145q0 187 119.5 309.5t326.5 137.5v139q0 31 31 31 h250q31 0 31 -31v-193q50 -24 96 -67l-8 37q-3 30 30 30h265q30 0 30 -30v-449q0 -30 -30 -30h-306q-30 0 -30 30v2q-2 73 -65.5 130t-184.5 57q-69 0 -107.5 -27.5t-38.5 -75.5q0 -46 35 -80.5t92 -55t129.5 -42.5t149 -41.5t149 -53t129.5 -75.5t92 -111.5t35 -158.5 q0 -78 -25.5 -148.5t-76 -130t-136 -99t-196.5 -48.5v-135q0 -31 -30 -31h-250q-31 0 -31 31v172q-52 19 -96.5 45t-62.5 42l-19 17h-4l4 -37q3 -31 -31 -31h-264q-31 0 -31 31z" />
<glyph unicode="%" horiz-adv-x="1732" d="M51 1114q0 93 26.5 165t72.5 116t104 66t125 22q141 0 231 -93t90 -276q0 -187 -87 -283t-234 -96t-237.5 96.5t-90.5 282.5zM272 1110q0 -81 28 -124.5t79 -43.5q100 0 100 168q0 88 -23.5 129t-76.5 41q-107 0 -107 -170zM430 -121l473 1647q9 30 39 30h283 q31 0 22 -30l-473 -1647q-9 -31 -39 -31h-282q-14 0 -20.5 8t-2.5 23zM1032 365q0 93 26.5 165t72.5 115.5t104 65.5t125 22q141 0 231 -92.5t90 -275.5q0 -187 -87 -283t-234 -96t-237.5 96.5t-90.5 282.5zM1253 360q0 -81 28 -124t79 -43q100 0 100 167q0 88 -23.5 129 t-76.5 41q-107 0 -107 -170z" />
<glyph unicode="&#x26;" horiz-adv-x="1413" d="M45 410q0 69 19.5 129t48.5 102.5t72 79.5t81.5 60t85.5 44q-119 140 -119 283q0 165 107 270t297 105q197 0 304.5 -101t107.5 -266q0 -62 -23.5 -120t-65 -106t-87.5 -85.5t-101 -69.5l127 -172q6 44 6 185q0 30 31 30h389q31 0 31 -30v-166q0 -31 -31 -31h-147 q-17 -131 -84 -254l16 -23h156q30 0 30 -30v-213q0 -31 -30 -31h-269q-26 1 -47 19t-47 55l-2 4q-141 -92 -313 -92q-248 0 -395.5 119t-147.5 305zM416 436q0 -74 45.5 -115.5t132.5 -41.5q81 0 139 28l-211 289q-106 -70 -106 -160zM559 1090q0 -72 68 -156 q61 35 88.5 72.5t27.5 91.5q0 42 -24 69t-64 27q-45 0 -70.5 -29.5t-25.5 -74.5z" />
<glyph unicode="'" horiz-adv-x="374" d="M51 1499q0 15 11 26t26 11h199q15 0 26 -11t11 -26l-23 -381q-2 -15 -12 -26t-25 -11h-155q-15 0 -26 11t-11 26z" />
<glyph unicode="(" horiz-adv-x="854" d="M51 719q0 129 23.5 242t64.5 198t97 154.5t119.5 116t134.5 78t139.5 45.5t136.5 14q15 0 26 -11t11 -26v-250q0 -15 -9.5 -26t-27.5 -11q-67 0 -133.5 -35t-123 -99.5t-91.5 -168t-35 -227.5t35 -229t91.5 -170.5t123 -101.5t133.5 -36q15 0 26 -11t11 -26v-250 q0 -15 -11 -25.5t-26 -10.5q-96 0 -192.5 29.5t-191.5 97t-168 165.5t-118 246.5t-45 327.5z" />
<glyph unicode=")" horiz-adv-x="854" d="M51 -111v250q0 15 11 26t26 11q67 0 133.5 36t123 101.5t91.5 170.5t35 229t-35 227.5t-91.5 168t-123 99.5t-133.5 35q-18 0 -27.5 11t-9.5 26v250q0 15 11 26t26 11q68 0 136.5 -14t139.5 -45.5t134.5 -78t119.5 -116t97 -154.5t64.5 -198t23.5 -242q0 -179 -45 -327.5 t-118 -246.5t-168 -165.5t-191.5 -97t-192.5 -29.5q-15 0 -26 10.5t-11 25.5z" />
<glyph unicode="*" horiz-adv-x="839" d="M51 1128v142q0 16 11.5 28.5t25.5 8.5l207 -62l-186 113q-12 8 -12 25t12 28l100 98q11 11 27 12t24 -12l113 -184l-62 207q-4 14 8.5 25.5t28.5 11.5h141q16 0 28.5 -11.5t8.5 -25.5l-53 -207l107 184q8 13 24 12t27 -12l100 -98q12 -11 12 -28t-12 -25l-180 -111 l201 60q14 4 25 -8.5t11 -28.5v-142q0 -16 -11 -27.5t-25 -8.5l-203 45l180 -97q13 -8 12 -24t-12 -27l-98 -100q-11 -12 -28 -12t-25 12l-107 178l55 -199q4 -14 -8.5 -25.5t-28.5 -11.5h-141q-16 0 -28 11.5t-9 25.5l49 205l-98 -184q-8 -13 -25 -12.5t-28 12.5l-98 100 q-11 11 -12 27t12 24l186 103l-209 -51q-15 -3 -26 8.5t-11 27.5z" />
<glyph unicode="+" horiz-adv-x="786" d="M51 383v250q0 15 11 26t26 11h141v151q0 31 31 31h283q30 0 30 -31v-151h125q15 0 26 -11t11 -26v-250q0 -15 -11 -26t-26 -11h-125v-117q0 -30 -30 -30h-283q-31 0 -31 30v117h-141q-15 0 -26 11t-11 26z" />
<glyph unicode="," horiz-adv-x="421" d="M51 133q0 63 43.5 107.5t106.5 44.5q77 0 123.5 -57.5t46.5 -157.5q0 -287 -215 -287q-17 0 -17 12v72q0 14 17 14q35 0 59.5 21t24.5 57l-4 31q-12 -6 -35 -6q-63 0 -106.5 43t-43.5 106z" />
<glyph unicode="-" horiz-adv-x="870" d="M51 420v250q0 15 11 26t26 11h694q15 0 26 -11t11 -26v-250q0 -15 -11 -26t-26 -11h-694q-15 0 -26 11t-11 26z" />
<glyph unicode="." horiz-adv-x="403" d="M51 133q0 63 43.5 107.5t106.5 44.5t107 -44.5t44 -107.5t-44 -106t-107 -43t-106.5 43t-43.5 106z" />
<glyph unicode="/" horiz-adv-x="923" d="M53 -121l473 1647q9 30 39 30h283q31 0 22 -30l-473 -1647q-9 -31 -39 -31h-282q-14 0 -20.5 8t-2.5 23z" />
<glyph unicode="0" horiz-adv-x="1398" d="M51 743q0 150 34.5 274t95.5 209t144 144t179 86t203 27t201.5 -27t175.5 -85.5t139.5 -144.5t91.5 -209.5t33 -273.5q0 -189 -47 -334.5t-133 -237.5t-202.5 -138.5t-258.5 -46.5q-143 0 -261 47t-207 138t-138.5 237.5t-49.5 334.5zM442 737q0 -200 70 -306.5 t195 -106.5q249 0 249 413q0 213 -60 315.5t-191 102.5t-197 -107t-66 -311z" />
<glyph unicode="1" horiz-adv-x="1173" d="M59 1139q-18 24 7 43l411 280q11 8 23 8h286q31 0 31 -30v-1131h275q30 0 30 -30v-248q0 -31 -30 -31h-945q-30 0 -30 31v248q0 30 30 30h308v762l-211 -143q-25 -18 -43 6z" />
<glyph unicode="2" horiz-adv-x="1308" d="M51 31v137q0 105 26.5 190.5t71.5 144t103 105t122.5 77.5t129 57t122.5 48.5t103 46.5t71.5 57t26.5 75q0 85 -56 134.5t-148 49.5t-148.5 -56.5t-56.5 -144.5q0 -30 -31 -30h-305q-31 0 -31 30q0 115 38 212t109.5 168t180.5 111t244 40q121 0 222 -27t169.5 -73 t116 -107.5t69 -128.5t21.5 -139q0 -81 -22.5 -148t-62 -114.5t-90.5 -86t-108.5 -67.5t-116.5 -54t-115.5 -48.5t-102.5 -49t-80.5 -58.5t-47.5 -73h416v129q0 31 31 31h305q30 0 30 -31v-407q0 -31 -30 -31h-1145q-31 0 -31 31z" />
<glyph unicode="3" horiz-adv-x="1273" d="M63 248q-22 22 3 43l215 198q24 21 43 -2q151 -163 309 -163q83 0 139.5 39t56.5 104q0 113 -190 113h-127q-31 0 -31 30v221q0 31 31 31h80q209 0 209 146q0 65 -42.5 105t-123.5 40q-73 0 -124.5 -43.5t-51.5 -116.5q0 -30 -31 -30h-291q-31 0 -31 30q0 235 131 362.5 t400 127.5q117 0 214 -27.5t159 -71.5t105 -100t61 -110.5t18 -106.5q0 -71 -20.5 -131.5t-50 -96t-58.5 -60.5t-49 -35l-21 -9v-6q5 -1 13 -3.5t32 -13t45.5 -24.5t47.5 -41t45 -59t32 -81t13 -106q0 -182 -162 -298.5t-426 -116.5q-53 0 -102 5.5t-87.5 12.5t-77.5 22.5 t-65.5 26t-58 32t-48 32.5t-42.5 36t-34.5 33.5t-31 33.5t-25.5 28z" />
<glyph unicode="4" horiz-adv-x="1257" d="M53 461v178q0 19 0.5 25t3.5 18.5t10 23t21 27.5l598 729q6 8 25 8h284q31 0 31 -30v-721h150q30 0 30 -31v-227q0 -31 -30 -31h-150v-121h150q30 0 30 -30v-248q0 -31 -30 -31h-820q-30 0 -30 31v248q0 30 30 30h308v121h-580q-31 0 -31 31zM422 719h242v285z" />
<glyph unicode="5" horiz-adv-x="1306" d="M63 248q-22 22 3 43l215 198q24 21 43 -2q30 -33 55.5 -55.5t65 -50.5t87.5 -42.5t101 -14.5q108 0 168.5 52t60.5 140q0 79 -58 129.5t-186 50.5q-88 0 -171 -20.5t-138.5 -41t-75.5 -20.5q-25 0 -41 19.5t-16 58.5v760q0 31 31 31h940q31 0 31 -31v-379q0 -31 -31 -31 h-305q-31 0 -31 31v101h-268v-218q100 21 180 21q136 0 239 -36t166.5 -102t95 -153t31.5 -194q0 -102 -42.5 -193t-120 -161t-196 -111t-261.5 -41q-116 0 -210.5 23t-167 71.5t-103 75.5t-80.5 81q-3 2 -4 3.5t-3 3.5z" />
<glyph unicode="6" horiz-adv-x="1310" d="M51 743q0 150 34.5 274t95.5 209t144 144t179 86t203 27q136 0 239.5 -34t166 -95t93.5 -140.5t31 -175.5q0 -30 -31 -30h-291q-30 0 -30 30q0 41 -52.5 79t-127.5 38q-196 0 -246 -235q153 57 280 57q136 0 237.5 -36t162.5 -102t91 -153t30 -194q0 -103 -38 -193.5 t-109.5 -160.5t-186 -111t-256.5 -41q-135 0 -247 46.5t-195.5 138.5t-130 238t-46.5 334zM444 655q13 -170 73.5 -250.5t150.5 -80.5q97 0 147.5 51.5t50.5 140.5q0 180 -231 180q-97 0 -191 -41z" />
<glyph unicode="7" horiz-adv-x="1282" d="M51 1044v408q0 31 31 31h1118q31 0 31 -31v-147q-1 -103 -26.5 -194t-65.5 -161.5t-88 -140.5t-95.5 -146.5t-87 -162.5t-64 -206t-24.5 -261q0 -33 -30 -33h-306q-30 0 -30 31q0 161 20 293t52.5 221t72.5 161.5t81.5 127.5t76.5 105t61 109.5t33 125.5h-393v-130 q0 -30 -31 -30h-305q-31 0 -31 30z" />
<glyph unicode="8" horiz-adv-x="1271" d="M51 438q0 57 11 107t29 84t39 62t42.5 45t39.5 28t29 16l11 4v7q-7 2 -18 6t-39 24.5t-50 50t-39.5 86t-17.5 127.5q0 52 17.5 104.5t59 106t102.5 94.5t157 67t213 26q98 0 181 -18t141.5 -49t103 -70.5t70.5 -85t38.5 -89t12.5 -86.5q0 -71 -17 -127.5t-41 -86.5 t-48 -49.5t-41 -25.5l-17 -5v-7q4 -1 11.5 -4t28 -15.5t39.5 -28.5t42.5 -44.5t40 -62.5t28 -84t11.5 -107q0 -90 -42 -172t-116.5 -144t-184.5 -99t-239 -37q-130 0 -241.5 37t-186.5 99t-117.5 144t-42.5 172zM444 467q0 -65 57 -104t140 -39q78 2 132 40.5t54 102.5 q0 28 -8.5 54t-26.5 50t-52.5 39t-80.5 15h-41q-93 0 -133.5 -47t-40.5 -111zM473 1020q0 -83 42.5 -116.5t121.5 -33.5q78 0 120 33.5t42 116.5q0 60 -42 96.5t-124 36.5q-78 0 -119 -37t-41 -96z" />
<glyph unicode="9" horiz-adv-x="1310" d="M51 977q0 103 38 193.5t109.5 160.5t186 111t256.5 41q135 0 247 -47t195.5 -138.5t130 -238t46.5 -334.5q0 -150 -34.5 -273.5t-95.5 -209t-144 -144t-179 -85.5t-203 -27q-136 0 -239.5 34t-166 95t-93.5 140t-31 175q0 31 30 31h291q31 0 31 -31q0 -41 52.5 -79 t127.5 -38q195 0 246 236q-153 -57 -281 -57q-136 0 -237.5 36t-162.5 102t-90.5 153t-29.5 194zM444 952q0 -180 232 -180q96 0 190 41q-13 171 -73 251.5t-150 80.5q-97 0 -148 -52t-51 -141z" />
<glyph unicode=":" horiz-adv-x="403" d="M51 133q0 63 43.5 107.5t106.5 44.5t107 -44.5t44 -107.5t-44 -106t-107 -43t-106.5 43t-43.5 106zM51 848q0 63 43.5 107t106.5 44t107 -44t44 -107t-44 -106.5t-107 -43.5t-106.5 43.5t-43.5 106.5z" />
<glyph unicode=";" horiz-adv-x="421" d="M51 133q0 63 43.5 107.5t106.5 44.5q77 0 123.5 -57.5t46.5 -157.5q0 -287 -215 -287q-17 0 -17 12v72q0 14 17 14q35 0 59.5 21t24.5 57l-4 31q-12 -6 -35 -6q-63 0 -106.5 43t-43.5 106zM51 848q0 63 43.5 107t106.5 44t107 -44t44 -107t-44 -106.5t-107 -43.5 t-106.5 43.5t-43.5 106.5z" />
<glyph unicode="&#x3c;" horiz-adv-x="907" d="M51 502v53q0 16 10.5 34t26.5 25l731 342q15 8 26 3.5t11 -19.5v-195q0 -15 -11 -33t-26 -24l-342 -160l342 -159q15 -6 26 -24t11 -34v-194q0 -15 -11 -20t-26 3l-731 342q-16 7 -26.5 25.5t-10.5 34.5z" />
<glyph unicode="=" horiz-adv-x="923" d="M51 168v250q0 15 11 26t26 11h748q15 0 25.5 -11t10.5 -26v-250q0 -15 -10.5 -26t-25.5 -11h-748q-15 0 -26 11t-11 26zM51 645v250q0 15 11 26t26 11h748q15 0 25.5 -11t10.5 -26v-250q0 -15 -10.5 -26t-25.5 -11h-748q-15 0 -26 11t-11 26z" />
<glyph unicode="&#x3e;" horiz-adv-x="907" d="M51 117v194q0 16 11 34t26 24l342 159l-342 160q-15 6 -26 24t-11 33v195q0 15 11 19.5t26 -3.5l731 -342q16 -7 26.5 -25t10.5 -34v-53q0 -16 -10.5 -34.5t-26.5 -25.5l-731 -342q-15 -8 -26 -3t-11 20z" />
<glyph unicode="?" horiz-adv-x="1271" d="M51 952q0 115 38 212t109.5 168t180.5 111t244 40q121 0 222 -27t169.5 -73t116 -107.5t69 -128.5t21.5 -139q0 -86 -16.5 -155t-44.5 -116t-64.5 -84t-76.5 -63t-80 -49.5t-76.5 -47.5t-64.5 -51t-44.5 -67t-16.5 -90q0 -31 -30 -31h-355q-30 0 -30 31q0 81 17.5 148 t46.5 113t67 83.5t79.5 64t83.5 49.5t80 45.5t67 47t46.5 58t17.5 75.5q0 85 -56 134.5t-148 49.5t-148.5 -56.5t-56.5 -144.5q0 -30 -31 -30h-305q-31 0 -31 30zM336 -76q0 80 56.5 136.5t135.5 56.5q80 0 136.5 -56.5t56.5 -136.5q0 -79 -56.5 -135.5t-136.5 -56.5 t-136 56t-56 136z" />
<glyph unicode="@" horiz-adv-x="1583" d="M51 471q0 169 67 321t178 258t259.5 168t308.5 62q152 0 279 -45.5t211.5 -124t131 -183.5t46.5 -225q0 -129 -45.5 -234.5t-121 -171.5t-168 -101t-191.5 -35h-41q-89 0 -80 78l4 18l-4 -6q-4 -5 -9.5 -12t-15 -16t-20.5 -18.5t-27 -18.5t-33 -15.5t-39.5 -11 t-46.5 -4.5q-47 0 -92 19.5t-85.5 58.5t-65.5 109t-25 161q0 191 118 309.5t281 118.5q33 0 60 -6t42.5 -15t26.5 -18t15 -15l4 -6l2 17q3 22 26 22h125q26 0 23 -30l-62 -496h33q75 0 125.5 92.5t50.5 214.5q0 152 -112 242t-320 90q-128 0 -233.5 -46t-173.5 -123.5 t-105 -176t-37 -205.5q0 -117 41 -209.5t110 -148t153.5 -84.5t177.5 -29q78 0 145.5 8t108.5 19t70 22t41 19l12 8q14 8 26.5 4t18.5 -17l75 -169q13 -30 -12 -41q-8 -5 -23 -12t-64.5 -26.5t-102.5 -34t-134.5 -26.5t-162.5 -12q-122 0 -234.5 33t-204.5 97t-160.5 152 t-106.5 203t-38 244zM647 506q0 -67 36.5 -99t86.5 -32q23 0 51 10t53 34.5t29 55.5l23 191q0 3 -1 8t-7 17.5t-14 22t-25 17.5t-39 8q-81 0 -137 -61.5t-56 -171.5z" />
<glyph unicode="A" horiz-adv-x="1660" d="M51 31v248q0 30 31 30h131l332 852h-154q-31 0 -31 31v248q0 30 31 30h479q70 0 105 -29.5t65 -107.5l406 -1024h133q31 0 31 -30v-248q0 -31 -31 -31h-625q-30 0 -30 31v248q0 30 30 30h129l-49 129h-409l-50 -129h132q30 0 30 -30v-248q0 -31 -30 -31h-625 q-31 0 -31 31zM729 713h203l-96 264h-11z" />
<glyph unicode="B" horiz-adv-x="1384" d="M51 31v248q0 30 31 30h131v852h-131q-31 0 -31 31v248q0 30 31 30h713q199 0 328.5 -115t129.5 -304q0 -180 -145 -299q111 -47 168 -130.5t57 -195.5q0 -223 -131.5 -324.5t-398.5 -101.5h-721q-31 0 -31 31zM575 309h183q101 0 155 41t54 111t-54.5 109.5t-154.5 39.5 h-183v-301zM575 872h132q82 0 131 38t49 104q0 72 -51 110.5t-140 38.5h-121v-291z" />
<glyph unicode="C" horiz-adv-x="1542" d="M51 743q0 145 39.5 267.5t107.5 208.5t159 146.5t194 89t213 28.5q262 0 373 -152l-7 109q-1 15 7.5 22.5t23.5 7.5h264q31 0 31 -30v-518q0 -31 -31 -31h-305q-30 0 -30 31v20q0 65 -82.5 130t-216.5 65q-157 0 -253 -106.5t-96 -293.5q0 -87 31 -162.5t82 -125.5 t117 -78.5t137 -28.5q45 0 86.5 5.5t74 14t63 22.5t52 27t42.5 31t33.5 31t26.5 31t19.5 27t13.5 23t9 15q16 28 41 9l207 -142q13 -10 13 -25q0 -9 -5 -20q-103 -232 -335 -335q-156 -70 -357 -70q-152 0 -286 51t-236 145.5t-161 239.5t-59 321z" />
<glyph unicode="D" horiz-adv-x="1472" d="M51 31v248q0 30 31 30h131v852h-131q-31 0 -31 31v248q0 30 31 30h577q118 0 229 -30.5t208 -93.5t169.5 -151.5t114 -212t41.5 -267.5q0 -162 -55 -299t-146 -226.5t-206.5 -139.5t-239.5 -50h-692q-31 0 -31 31zM575 309h54q99 2 170.5 21.5t126.5 64.5t82.5 123.5 t27.5 192.5q0 450 -434 450h-27v-852z" />
<glyph unicode="E" horiz-adv-x="1335" d="M51 31v248q0 30 31 30h131v852h-131q-31 0 -31 31v248q0 30 31 30h1171q31 0 31 -30v-473q0 -31 -31 -31h-252q-30 0 -30 31v194h-396v-272h320q31 0 31 -31v-248q0 -30 -31 -30h-320v-271h394v195q0 31 30 31h254q31 0 31 -31v-473q0 -31 -31 -31h-1171q-31 0 -31 31z " />
<glyph unicode="F" horiz-adv-x="1335" d="M51 31v248q0 30 31 30h131v852h-131q-31 0 -31 31v248q0 30 31 30h1171q31 0 31 -30v-473q0 -31 -31 -31h-252q-30 0 -30 31v194h-396v-272h320q31 0 31 -31v-248q0 -30 -31 -30h-320v-271h259q30 0 30 -30v-248q0 -31 -30 -31h-752q-31 0 -31 31z" />
<glyph unicode="G" horiz-adv-x="1529" d="M51 743q0 145 39.5 267.5t107.5 208.5t159 146.5t194 89t213 28.5q262 0 373 -152l-7 109q-1 15 7.5 22.5t23.5 7.5h264q31 0 31 -30v-518q0 -31 -31 -31h-305q-30 0 -30 31v20q0 65 -82.5 130t-216.5 65q-157 0 -253 -106.5t-96 -293.5q0 -87 31 -162.5t82 -125.5 t117 -78.5t137 -28.5q228 0 321 145v7h-348q-30 0 -30 30v226q0 30 30 30h666q31 0 31 -30v-719q0 -31 -31 -31h-246q-31 0 -31 31l3 88q-140 -133 -381 -133q-152 0 -286 51t-236 145.5t-161 239.5t-59 321z" />
<glyph unicode="H" horiz-adv-x="1634" d="M51 31v248q0 30 31 30h131v852h-131q-31 0 -31 31v248q0 30 31 30h625q30 0 30 -30v-248q0 -31 -30 -31h-132v-282h484v282h-131q-31 0 -31 31v248q0 30 31 30h624q31 0 31 -30v-248q0 -31 -31 -31h-131v-852h131q31 0 31 -30v-248q0 -31 -31 -31h-624q-31 0 -31 31v248 q0 30 31 30h131v271h-484v-271h132q30 0 30 -30v-248q0 -31 -30 -31h-625q-31 0 -31 31z" />
<glyph unicode="I" horiz-adv-x="788" d="M51 31v248q0 30 31 30h131v852h-131q-31 0 -31 31v248q0 30 31 30h625q30 0 30 -30v-248q0 -31 -30 -31h-132v-852h132q30 0 30 -30v-248q0 -31 -30 -31h-625q-31 0 -31 31z" />
<glyph unicode="J" horiz-adv-x="983" d="M51 31v250q0 30 31 30q93 0 157.5 22.5t101 66t52 99t15.5 130.5v532h-132q-30 0 -30 31v248q0 30 30 30h625q31 0 31 -30v-248q0 -31 -31 -31h-131v-514q0 -176 -43.5 -301t-132.5 -201t-214.5 -110.5t-297.5 -34.5q-31 0 -31 31z" />
<glyph unicode="K" horiz-adv-x="1548" d="M51 31v248q0 30 31 30h131v852h-131q-31 0 -31 31v248q0 30 31 30h575q31 0 31 -30v-248q0 -31 -31 -31h-82v-362h74q179 0 251.5 87t72.5 275h-131q-31 0 -31 31v248q0 30 31 30h624q31 0 31 -30v-248q0 -31 -31 -31h-131q0 -342 -202 -512q34 -19 58 -53t52 -96 l82 -191h139q31 0 31 -30v-248q0 -31 -31 -31h-299q-102 0 -166 141l-139 308q-30 65 -108 65h-177v-205h183q30 0 30 -30v-248q0 -31 -30 -31h-676q-31 0 -31 31z" />
<glyph unicode="L" horiz-adv-x="1273" d="M51 31v248q0 30 31 30h131v852h-131q-31 0 -31 31v248q0 30 31 30h616q15 0 26 -10.5t11 -25.5v-236q0 -15 -11 -26t-26 -11h-123v-852h332v195q0 31 31 31h254q31 0 31 -31v-467q0 -15 -11 -26t-26 -11h-1104q-31 0 -31 31z" />
<glyph unicode="M" horiz-adv-x="1875" d="M51 31v248q0 30 31 30h131v852h-131q-31 0 -31 31v248q0 30 31 30h444q105 0 148 -114l166 -430l92 -252h12q41 115 94 252l170 430q47 114 148 114h438q31 0 31 -30v-248q0 -31 -31 -31h-131v-852h131q31 0 31 -30v-248q0 -31 -31 -31h-563q-31 0 -31 31v248q0 30 31 30 h69v506h-6l-211 -606q-36 -98 -145 -98t-145 98l-211 606h-7v-506h70q31 0 31 -30v-248q0 -31 -31 -31h-563q-31 0 -31 31z" />
<glyph unicode="N" horiz-adv-x="1634" d="M51 31v248q0 30 31 30h131v852h-131q-31 0 -31 31v248q0 30 31 30h412q37 0 66 -18t43 -37t38 -59l303 -502q24 -39 50.5 -92t41.5 -86l15 -33h8v518h-131q-31 0 -31 31v248q0 30 31 30h624q31 0 31 -30v-248q0 -31 -31 -31h-131v-1130q0 -31 -30 -31h-252 q-50 0 -82 24.5t-64 73.5l-344 537q-16 24 -32.5 56.5t-25.5 53.5l-9 21h-7v-457h132q30 0 30 -30v-248q0 -31 -30 -31h-625q-31 0 -31 31z" />
<glyph unicode="O" horiz-adv-x="1593" d="M51 743q0 145 43 268t116 208.5t169 146t202 89t216 28.5t216 -28.5t202 -89t168.5 -146t115.5 -208.5t43 -268q0 -231 -99 -404.5t-267 -263t-379 -89.5q-156 0 -293.5 56.5t-237 155t-157.5 240.5t-58 305zM442 737q0 -175 100.5 -294t254.5 -119t254 119t100 294 q0 188 -100 303t-256 115q-154 0 -253.5 -115.5t-99.5 -302.5z" />
<glyph unicode="P" horiz-adv-x="1351" d="M51 31v248q0 30 31 30h131v852h-131q-31 0 -31 31v248q0 30 31 30h704q225 0 369.5 -151t144.5 -371q0 -218 -148.5 -349.5t-393.5 -131.5h-183v-158h166q31 0 31 -30v-248q0 -31 -31 -31h-659q-31 0 -31 31zM575 752h138q120 0 170.5 51t50.5 145q0 101 -58.5 157 t-158.5 56h-142v-409z" />
<glyph unicode="Q" horiz-adv-x="1574" d="M51 743q0 145 43 268t116 208.5t169 146t202 89t216 28.5t216 -28.5t202 -89t168.5 -146t115.5 -208.5t43 -268q0 -160 -49 -294.5t-136 -228.5t-206 -152.5t-260 -73.5q2 -3 6 -8t23 -18t45 -22.5t77 -17.5t115 -8q80 0 121 7t80 24q13 6 24.5 3t14.5 -13l69 -199 q5 -10 0.5 -21.5t-14.5 -15.5q-43 -19 -134 -39t-183 -20q-75 0 -145 13.5t-125 37t-104.5 53.5t-86 63t-68 66.5t-52 63.5t-35 53.5t-21.5 37.5l-6 13q-201 85 -321 269t-120 427zM442 737q0 -173 100 -284t255 -111t254.5 111t99.5 284q0 186 -99 293t-257 107 q-156 0 -254.5 -107.5t-98.5 -292.5z" />
<glyph unicode="R" horiz-adv-x="1480" d="M51 31v248q0 30 31 30h131v852h-131q-31 0 -31 31v248q0 30 31 30h704q228 0 371 -138.5t143 -356.5q0 -131 -57 -230t-162 -157q41 -41 70 -90l109 -189h139q31 0 31 -30v-248q0 -31 -31 -31h-299q-54 0 -93.5 36t-72.5 105l-139 287q-42 86 -123 86h-97v-205h166 q31 0 31 -30v-248q0 -31 -31 -31h-659q-31 0 -31 31zM575 799h123q123 0 179.5 40t56.5 126q0 196 -236 196h-123v-362z" />
<glyph unicode="S" horiz-adv-x="1351" d="M51 31v518q0 31 31 31h305q31 0 31 -31v-35q2 -8 6 -20.5t23.5 -45.5t47 -58t80.5 -45.5t119 -20.5q65 0 106.5 31t41.5 77q0 29 -26 51.5t-70 39.5t-101.5 33.5t-120.5 36t-126 43.5t-120.5 60t-101.5 81t-70 111t-26 146q0 199 135.5 324t364.5 125q231 0 354 -123 l-8 80q-3 30 30 30h265q30 0 30 -30v-518q0 -31 -30 -31h-306q-30 0 -30 31v32q0 70 -64.5 126.5t-185.5 56.5q-69 0 -107.5 -27.5t-38.5 -75.5q0 -32 22.5 -58t61.5 -43t91 -34.5t110.5 -31.5t120 -34.5t120 -43t110.5 -57t91 -76.5t61.5 -102.5t22.5 -133.5 q0 -84 -29 -159t-87.5 -138t-158 -100t-228.5 -37q-56 0 -109 8t-93.5 21t-77 28.5t-62 30.5t-44 28t-28.5 21l-10 8l4 -100q3 -31 -31 -31h-264q-31 0 -31 31z" />
<glyph unicode="T" horiz-adv-x="1464" d="M51 918v516q0 15 11 25.5t26 10.5h1288q15 0 26 -10.5t11 -25.5v-516q0 -15 -11 -26t-26 -11h-268q-15 0 -26 11t-11 26v243h-151v-852h124q15 0 26 -11t11 -26v-235q0 -15 -11 -26t-26 -11h-612q-15 0 -26 11t-11 26v235q0 15 11 26t26 11h125v852h-164v-243 q0 -15 -11 -26t-26 -11h-268q-15 0 -26 11t-11 26z" />
<glyph unicode="U" horiz-adv-x="1613" d="M51 1192v248q0 30 31 30h625q30 0 30 -30v-248q0 -31 -30 -31h-132v-620q0 -39 10.5 -74t34.5 -69t73 -54t118 -20q105 0 166 60t61 146v631h-131q-30 0 -30 31v248q0 30 30 30h625q31 0 31 -30v-248q0 -31 -31 -31h-131v-612q0 -273 -161 -418t-429 -145 q-177 0 -310 61.5t-210.5 190t-77.5 311.5v612h-131q-31 0 -31 31z" />
<glyph unicode="V" horiz-adv-x="1695" d="M51 1192v248q0 30 31 30h625q30 0 30 -30v-248q0 -31 -30 -31h-119l250 -657h20l248 657h-117q-31 0 -31 31v248q0 30 31 30h625q31 0 31 -30v-248q0 -31 -31 -31h-123l-406 -1024q-30 -78 -65 -107.5t-105 -29.5h-135q-70 0 -105 29.5t-65 107.5l-407 1024h-121 q-31 0 -31 31z" />
<glyph unicode="W" horiz-adv-x="2250" d="M51 1192v248q0 30 31 30h625q30 0 30 -30v-248q0 -31 -30 -31h-129l129 -657h20l231 966h324l236 -966h20l129 657h-129q-31 0 -31 31v248q0 30 31 30h625q30 0 30 -30v-248q0 -31 -30 -31h-115l-283 -1024q-22 -77 -59.5 -107t-110.5 -30h-135q-74 0 -113 30.5 t-57 106.5l-164 690h-14l-158 -690q-18 -76 -57 -106.5t-113 -30.5h-135q-73 0 -110.5 30t-59.5 107l-284 1024h-113q-31 0 -31 31z" />
<glyph unicode="X" horiz-adv-x="1624" d="M51 31v248q0 30 31 30h149l363 426l-363 426h-149q-31 0 -31 31v248q0 30 31 30h625q30 0 30 -30v-248q0 -31 -30 -31h-91l195 -237l195 237h-88q-31 0 -31 31v248q0 30 31 30h624q31 0 31 -30v-248q0 -31 -31 -31h-151l-363 -426l363 -426h151q31 0 31 -30v-248 q0 -31 -31 -31h-624q-31 0 -31 31v248q0 30 31 30h88l-195 236l-195 -236h91q30 0 30 -30v-248q0 -31 -30 -31h-625q-31 0 -31 31z" />
<glyph unicode="Y" horiz-adv-x="1615" d="M51 1192v248q0 30 31 30h625q30 0 30 -30v-248q0 -31 -30 -31h-103l191 -299h20l195 299h-101q-30 0 -30 31v248q0 30 30 30h625q31 0 31 -30v-248q0 -31 -31 -31h-139q-391 -570 -406 -588v-264h131q31 0 31 -30v-248q0 -31 -31 -31h-624q-31 0 -31 31v248q0 30 31 30 h131v256q-29 37 -406 596h-139q-31 0 -31 31z" />
<glyph unicode="Z" horiz-adv-x="1335" d="M51 37v207q0 44 68 125l672 792h-398v-188q0 -15 -11 -26t-26 -11h-268q-15 0 -26 11t-11 26v461q0 15 11 25.5t26 10.5h1159q15 0 26 -10.5t11 -25.5v-181q0 -43 -15 -75t-46 -68l-678 -801h397v189q0 15 11 26t26 11h268q15 0 26 -11t11 -26v-461q0 -15 -11 -26 t-26 -11h-1159q-15 0 -26 11t-11 26z" />
<glyph unicode="[" horiz-adv-x="765" d="M51 -115v1653q0 31 31 31l596 -2q15 0 26 -11t11 -26v-250q0 -15 -11 -26t-26 -11h-283v-1065h283q15 0 26 -11t11 -26v-250q0 -15 -11 -25.5t-26 -10.5h-596q-31 0 -31 30z" />
<glyph unicode="\" horiz-adv-x="923" d="M53 1526q-9 30 23 30h282q30 0 39 -30l473 -1647q9 -31 -22 -31h-283q-30 0 -39 31z" />
<glyph unicode="]" horiz-adv-x="765" d="M51 -109v250q0 15 11 26t26 11h283v1065h-283q-15 0 -26 11t-11 26v250q0 15 11 26t26 11l596 2q31 0 31 -31v-1653q0 -30 -31 -30h-596q-15 0 -26 10.5t-11 25.5z" />
<glyph unicode="_" horiz-adv-x="1171" d="M51 -80q0 15 11 26t26 11h995q15 0 26 -11t11 -26v-250q0 -15 -11 -26t-26 -11h-995q-15 0 -26 11t-11 26v250z" />
<glyph unicode="`" horiz-adv-x="724" d="M51 1470q-1 15 8 27l150 178q11 12 26.5 14t26.5 -8l397 -360q12 -11 13.5 -26t-8.5 -27l-119 -142q-10 -12 -25.5 -13.5t-27.5 7.5l-429 326q-11 9 -12 24z" />
<glyph unicode="a" horiz-adv-x="1198" d="M51 283q0 157 129.5 242t376.5 85h123v2q0 48 -40 76.5t-110 28.5q-76 0 -133.5 -16.5t-87.5 -33t-37 -16.5q-20 0 -30 15l-136 172q-14 20 3 34q6 6 17.5 16t53.5 36t89.5 46t125.5 36t162 16q102 0 184.5 -23.5t147 -73.5t100 -135t35.5 -200v-316h92q31 0 31 -30v-213 q0 -31 -31 -31h-285q-47 0 -73.5 26.5t-26.5 73.5v62h-4q-4 -7 -11 -19.5t-36 -43.5t-63.5 -54.5t-95.5 -43t-130 -19.5q-158 0 -249 83t-91 218zM412 352q0 -41 34.5 -61.5t92.5 -20.5q84 0 141 74v100h-96q-90 0 -131 -21t-41 -71z" />
<glyph unicode="b" horiz-adv-x="1269" d="M51 1227v213q0 30 31 30h389q31 0 31 -30v-428l-10 -103h10q3 5 9 12.5t29 27t50 34.5t73.5 27t98.5 12q212 0 334.5 -142t122.5 -372q0 -251 -127.5 -386.5t-333.5 -135.5q-55 0 -103.5 11t-79 27t-53 32t-32.5 27l-9 11h-4v-63q0 -31 -31 -31h-241q-31 0 -31 31v1165 h-92q-31 0 -31 31zM506 508q0 -115 50.5 -173.5t131.5 -58.5q91 0 141 64t50 170q0 103 -52.5 162t-138.5 59q-77 0 -129.5 -55.5t-52.5 -167.5z" />
<glyph unicode="c" horiz-adv-x="1134" d="M51 506q0 121 43.5 221t115 163t160 97.5t181.5 34.5q60 0 112 -13t82.5 -31t53 -36.5t31.5 -31.5l8 -13h4l-4 80q-3 31 30 31h185q30 0 30 -31v-399q0 -31 -30 -31h-230q-30 0 -30 31v24q-3 56 -52.5 91.5t-126.5 35.5q-83 0 -148 -57t-65 -164q0 -109 66.5 -170.5 t165.5 -61.5q40 0 80 12.5t68.5 30t51.5 34.5t35 29l11 13q24 28 47 2l137 -149q22 -25 4 -49q-8 -13 -25 -32.5t-58.5 -53t-91.5 -60.5t-128 -47t-164 -20q-152 0 -275.5 60.5t-198.5 180.5t-75 279z" />
<glyph unicode="d" horiz-adv-x="1267" d="M51 508q0 228 127 371t340 143q52 0 97 -11.5t72 -28t46.5 -33.5t26.5 -29l8 -11h4q-4 44 -4 103v184h-92q-31 0 -31 31v213q0 30 31 30h389q31 0 31 -30v-1166h90q31 0 31 -30v-213q0 -31 -31 -31h-285q-47 0 -73.5 26.5t-26.5 73.5v17h-4q-4 -5 -11 -14t-33 -31.5 t-56.5 -40t-80 -31.5t-104.5 -14q-206 0 -333.5 135.5t-127.5 386.5zM391 510q0 -106 50 -170t141 -64q81 0 131.5 58.5t50.5 173.5q0 112 -52.5 167.5t-129.5 55.5q-86 0 -138.5 -59t-52.5 -162z" />
<glyph unicode="e" horiz-adv-x="1128" d="M51 506q0 120 47 220.5t123 163.5t167.5 97.5t184.5 34.5q247 0 371.5 -135.5t124.5 -390.5q0 -15 -11 -26t-26 -11h-624q18 -91 78.5 -137t146.5 -46q40 0 81 11.5t70.5 28t53.5 33.5t36 29l13 11q24 28 47 2l129 -143q12 -14 12 -27q0 -11 -8 -22q-8 -13 -25 -32.5 t-58.5 -53t-91.5 -60.5t-128 -47t-164 -20q-152 0 -275.5 60.5t-198.5 180.5t-75 279zM414 641h329q-4 41 -44 78t-111 37q-59 0 -107 -27.5t-67 -87.5z" />
<glyph unicode="f" horiz-adv-x="958" d="M51 31v213q0 30 31 30h90v459h-90q-31 0 -31 31v213q0 31 31 31h90v63q0 205 106 311.5t310 106.5q62 0 114.5 -12.5t94 -36.5t63 -40.5t50.5 -42.5q7 -6 10 -9q16 -16 16 -30q0 -8 -6 -15l-123 -162q-20 -23 -45 -4q-19 16 -32 24.5t-40 16.5t-63 8q-59 0 -84 -33 t-25 -82v-63h260q31 0 31 -31v-213q0 -31 -31 -31h-260v-459h162q31 0 31 -30v-213q0 -31 -31 -31h-598q-31 0 -31 31z" />
<glyph unicode="g" horiz-adv-x="1257" d="M51 498q0 252 128 389t333 137q55 0 103.5 -11.5t78.5 -28t52.5 -33.5t31.5 -29l10 -11h5v66q0 31 30 31h353q30 0 30 -31v-213q0 -31 -30 -31h-80v-733q0 -97 -29 -177.5t-80 -137t-121.5 -95t-153 -57t-175.5 -18.5q-73 0 -141.5 14.5t-109.5 29.5t-89 45t-59 39 t-40 33q-29 25 -12 48l125 182q15 24 45 2q1 -1 20 -15t22.5 -16.5t22 -14.5t28.5 -15t31 -11t39.5 -10.5t45 -5t55.5 -2.5q248 0 248 182v96q-3 -5 -9 -12.5t-29 -26.5t-50 -34t-73.5 -27t-98.5 -12q-212 0 -334.5 142t-122.5 372zM391 496q0 -103 52.5 -162.5t138.5 -59.5 q76 0 129 56t53 168q0 115 -50.5 173t-131.5 58q-91 0 -141 -63.5t-50 -169.5z" />
<glyph unicode="h" d="M51 31v213q0 30 31 30h90v922h-90q-31 0 -31 31v213q0 30 31 30h403q31 0 31 -30v-377q0 -37 -18 -154h6q82 113 252 113q161 0 250.5 -100.5t91.5 -262.5l4 -385h92q31 0 31 -30v-213q0 -31 -31 -31h-336q-47 0 -73.5 26.5t-26.5 73.5v439q0 35 -2 58.5t-9.5 48t-21 39 t-37 23.5t-57.5 9q-17 0 -32 -3.5t-25.5 -9.5t-19.5 -14t-14.5 -16t-10 -16.5t-7 -16t-4 -13.5t-2.5 -9v-3v-342h74q31 0 31 -30v-213q0 -31 -31 -31h-508q-31 0 -31 31z" />
<glyph unicode="i" horiz-adv-x="641" d="M51 31v213q0 30 31 30h90v459h-90q-31 0 -31 31v213q0 31 31 31h403q31 0 31 -31v-703h74q31 0 31 -30v-213q0 -31 -31 -31h-508q-31 0 -31 31zM139 1290q0 80 56.5 136.5t136.5 56.5q79 0 135.5 -56.5t56.5 -136.5t-56 -136t-136 -56t-136.5 56.5t-56.5 135.5z" />
<glyph unicode="j" horiz-adv-x="845" d="M12 -320q-1 4 -1 8q0 11 7 19l117 156q9 11 25 13t28 -7q2 -2 9 -8.5t10 -8.5t10 -7.5t11 -7.5l12 -6t15 -5.5t16.5 -3.5t20.5 -3t23 -1q59 0 85 33t26 81v801h-92q-31 0 -31 31v213q0 31 31 31h405q31 0 31 -31v-1045q0 -205 -106 -311t-310 -106q-62 0 -114 12t-92 35 t-61 39t-50 42q-7 6 -10 9q-12 12 -15 28zM410 1292q0 80 56.5 136.5t135.5 56.5q80 0 136.5 -56.5t56.5 -136.5q0 -79 -56.5 -135.5t-136.5 -56.5t-136 56t-56 136z" />
<glyph unicode="k" horiz-adv-x="1288" d="M51 31v213q0 30 31 30h90v922h-90q-31 0 -31 31v213q0 30 31 30h403q31 0 31 -30v-862l191 155h-64q-31 0 -31 31v213q0 31 31 31h508q31 0 31 -31v-213q0 -31 -31 -31h-109l-202 -160l225 -299h141q31 0 31 -30v-213q0 -31 -31 -31h-223q-77 0 -143 90l-224 307 l-100 -80v-43h74q31 0 31 -30v-213q0 -31 -31 -31h-508q-31 0 -31 31z" />
<glyph unicode="l" horiz-adv-x="671" d="M51 31v213q0 30 31 30h90v924h-90q-31 0 -31 31v213q0 31 31 31h403q31 0 31 -31v-1168h74q31 0 31 -30v-213q0 -31 -31 -31h-508q-31 0 -31 31z" />
<glyph unicode="m" horiz-adv-x="1857" d="M51 31v213q0 30 31 30h90v459h-90q-31 0 -31 31v213q0 31 31 31h352q31 0 31 -31v-129h8q0 3 7.5 19t29 43t52 51.5t85 42.5t119.5 18q104 0 177.5 -44.5t111.5 -123.5q84 168 293 168q160 0 244.5 -99.5t86.5 -263.5l4 -385h93q30 0 30 -30v-213q0 -31 -30 -31h-336 q-47 0 -74 26.5t-27 73.5v439q0 35 -2 58.5t-9.5 48t-21 39t-37 23.5t-57.5 9q-33 0 -57 -12t-35.5 -29.5t-16.5 -31.5t-5 -23v-9l4 -338h92q31 0 31 -30v-213q0 -31 -31 -31h-508q-31 0 -31 31v213q0 30 31 30h72v265q0 35 -2 58.5t-9.5 48t-21 39t-37 23.5t-57.5 9 q-17 0 -32 -3.5t-25.5 -9.5t-19.5 -14t-14.5 -16t-10 -16.5t-7 -16t-4 -13.5t-2.5 -9v-3v-342h45q31 0 31 -30v-213q0 -31 -31 -31h-479q-31 0 -31 31z" />
<glyph unicode="n" d="M51 31v213q0 30 31 30h90v459h-90q-31 0 -31 31v213q0 31 31 31h352q31 0 31 -31v-127h8q2 7 7 18.5t27 41t51 52.5t83 41.5t119 18.5q161 0 248.5 -100t89.5 -263l4 -385h92q31 0 31 -30v-213q0 -31 -31 -31h-336q-47 0 -73.5 26.5t-26.5 73.5v439q0 35 -2 58.5t-9.5 48 t-21 39t-37 23.5t-57.5 9q-33 0 -57.5 -12.5t-36 -32.5t-16 -32t-5.5 -22v-344h74q31 0 31 -30v-213q0 -31 -31 -31h-508q-31 0 -31 31z" />
<glyph unicode="o" horiz-adv-x="1191" d="M51 506q0 235 149 375.5t396 140.5t396 -140.5t149 -375.5q0 -238 -146 -379t-401 -141q-253 0 -398 141t-145 379zM401 508q0 -105 51 -168.5t142 -63.5q92 0 144.5 63.5t52.5 168.5q0 102 -52.5 161.5t-142.5 59.5t-142.5 -59.5t-52.5 -161.5z" />
<glyph unicode="p" horiz-adv-x="1269" d="M51 -219q0 31 31 31h92v921h-80q-31 0 -31 31v213q0 31 31 31h352q31 0 31 -31l-2 -66h6q3 5 10 12t31.5 26.5t53.5 34t78 26.5t104 12q206 0 333.5 -136.5t127.5 -387.5q0 -229 -122.5 -370.5t-334.5 -141.5q-52 0 -98 9.5t-74.5 22.5t-49.5 26t-30 22l-8 10h-6 q6 -59 6 -82v-182h147q31 0 31 -31v-213q0 -31 -31 -31h-567q-31 0 -31 31v213zM506 498q0 -112 53 -168t129 -56q86 0 138.5 59.5t52.5 162.5q0 106 -50 169.5t-141 63.5q-81 0 -131.5 -58t-50.5 -173z" />
<glyph unicode="q" horiz-adv-x="1269" d="M51 500q0 251 127.5 386.5t333.5 135.5q55 0 103.5 -11t78.5 -27t52.5 -32.5t31.5 -27.5l10 -11h5v64q0 31 30 31h242q31 0 31 -31v-1165h92q31 0 31 -31v-213q0 -31 -31 -31h-567q-31 0 -31 31v213q0 31 31 31h147v184l4 102h-4q-3 -5 -9 -12.5t-29 -26.5t-50 -34 t-73.5 -27t-98.5 -12q-212 0 -334.5 142t-122.5 372zM391 498q0 -103 52.5 -162.5t138.5 -59.5q76 0 129 56t53 168q0 115 -50.5 173t-131.5 58q-91 0 -141 -63.5t-50 -169.5z" />
<glyph unicode="r" horiz-adv-x="927" d="M51 31v213q0 30 31 30h90v459h-90q-31 0 -31 31v213q0 31 31 31h352q31 0 31 -31v-209h10q4 10 11.5 27.5t39.5 61t72.5 77t113 61t158.5 27.5q15 0 26 -11t11 -26v-274q0 -15 -11 -26t-26 -11h-90q-101 0 -182.5 -65t-81.5 -152v-183h74q31 0 31 -30v-213q0 -31 -31 -31 h-508q-31 0 -31 31z" />
<glyph unicode="s" horiz-adv-x="1034" d="M51 37l2 317q0 15 11 26t26 11h193q15 0 25.5 -10t10.5 -25v-6q2 -4 5 -11t17.5 -24.5t34 -31t54.5 -24.5t78 -11q102 0 102 61q0 18 -22.5 31.5t-59.5 21t-84.5 19t-96.5 23.5t-96.5 36t-84.5 56t-59.5 84t-22.5 118q0 142 97 233t280 91q184 0 274 -104h4q-6 41 -6 47 q0 17 10.5 26.5t26.5 9.5h150q15 0 25.5 -10.5t10.5 -25.5l-2 -322q0 -15 -10.5 -26t-25.5 -11h-193q-15 0 -26 11t-11 26v10q0 43 -47.5 73t-120.5 30q-45 0 -70.5 -18.5t-25.5 -49.5q0 -29 31 -47t80 -28.5t109 -21.5t119.5 -31.5t108.5 -51t80 -88t31 -135.5 q0 -43 -12.5 -84t-43 -81t-76 -69.5t-116.5 -48t-160 -18.5q-49 0 -96.5 11t-80.5 26.5t-58.5 31t-37.5 26.5l-13 11h-4q4 -37 4 -53q0 -15 -11 -26t-26 -11h-164q-15 0 -26 11t-11 26z" />
<glyph unicode="t" horiz-adv-x="983" d="M51 770v201q0 15 11 26t26 11h84v243q0 15 11 26t26 11h272q15 0 26 -11t11 -26v-243h254q15 0 26 -11t11 -26v-201q0 -15 -11 -26t-26 -11h-254v-330q0 -48 25 -81t84 -33q14 0 26.5 1.5t21 3t18.5 5.5l15 6t13.5 8.5t10.5 8t11.5 9.5t10.5 9q12 9 28 7t25 -13l117 -156 q7 -8 7 -19q0 -4 -1 -8q-3 -16 -15 -28q-64 -57 -100 -78q-98 -59 -227 -59q-204 0 -310 106t-106 311v330h-84q-15 0 -26 11t-11 26z" />
<glyph unicode="u" d="M51 764v213q0 31 31 31h336q47 0 73.5 -27t26.5 -74v-438q0 -35 2 -58.5t9.5 -48t21 -39t37 -23.5t57.5 -9q33 0 58 12.5t36 31t16 32t5 22.5v344h-74q-31 0 -31 31v213q0 31 31 31h387q31 0 31 -31v-703h90q31 0 31 -30v-213q0 -31 -31 -31h-285q-47 0 -73.5 26.5 t-26.5 73.5v58h-6q-1 -7 -5 -18.5t-22.5 -41t-45 -52.5t-78.5 -41.5t-117 -18.5q-163 0 -259 101t-98 261l-4 385h-92q-31 0 -31 31z" />
<glyph unicode="v" horiz-adv-x="1306" d="M20 764v213q0 31 31 31h518q31 0 31 -31v-213q0 -31 -31 -31h-59l141 -448h4l142 448h-64q-31 0 -31 31v213q0 31 31 31h522q31 0 31 -31v-213q0 -31 -31 -31h-104l-227 -670q-14 -40 -29.5 -51.5t-56.5 -11.5h-369q-41 0 -56.5 11.5t-29.5 51.5l-229 670h-103 q-31 0 -31 31z" />
<glyph unicode="w" horiz-adv-x="1839" d="M25 764v213q0 31 30 31h523q30 0 30 -31v-213q0 -31 -30 -31h-68l104 -448h4l117 448h-16q-31 0 -31 31v213q0 31 31 31h409q31 0 31 -31v-213q0 -31 -31 -31h-14l117 -448h4l100 448h-65q-31 0 -31 31v213q0 31 31 31h522q31 0 31 -31v-213q0 -31 -31 -31h-102 l-193 -655q-13 -42 -34 -60t-64 -18h-314q-87 0 -98 78l-61 407h-4l-60 -407q-11 -78 -98 -78h-313q-43 0 -65 18.5t-34 59.5l-194 655h-103q-30 0 -30 31z" />
<glyph unicode="x" horiz-adv-x="1204" d="M51 31v213q0 30 31 30h92l211 248l-240 211h-61q-31 0 -31 31v213q0 31 31 31h494q30 0 30 -31v-213q0 -31 -30 -31h-56l146 -125l92 125h-17q-30 0 -30 31v213q0 31 30 31h379q31 0 31 -31v-213q0 -31 -31 -31h-92l-207 -256l238 -203h59q31 0 31 -30v-213 q0 -31 -31 -31h-493q-31 0 -31 31v213q0 30 31 30h45l-135 117l-93 -117h17q31 0 31 -30v-213q0 -31 -31 -31h-379q-31 0 -31 31z" />
<glyph unicode="y" horiz-adv-x="1339" d="M51 764v213q0 31 31 31h489q31 0 31 -31v-213q0 -31 -31 -31h-39l121 -448h4l142 448h-64q-30 0 -30 31v213q0 31 30 31h522q31 0 31 -31v-213q0 -31 -31 -31h-104l-270 -801q-21 -64 -37 -106t-38 -90t-43.5 -78t-50.5 -60t-62 -46.5t-76 -26.5t-95 -10q-62 0 -114 12 t-92 35t-61 39t-50 42q-7 6 -10 9q-31 31 -15 49l131 168q18 21 45 0q3 -2 10.5 -9t10.5 -9.5t11 -8.5t13.5 -8t14.5 -6t18.5 -5.5t22 -3t26.5 -1.5q25 0 44 9.5t31.5 28.5t19.5 34.5t16 41.5l22 68h-71q-42 0 -63 18t-35 60l-224 655h-100q-31 0 -31 31z" />
<glyph unicode="z" horiz-adv-x="1081" d="M51 31v168q0 44 11.5 64.5t41.5 47.5l498 422h-295v-117q0 -30 -31 -30h-194q-31 0 -31 30v361q0 31 31 31h917q31 0 31 -31v-162q0 -66 -59 -119l-484 -422h287v105q0 31 31 31h194q31 0 31 -31v-348q0 -31 -31 -31h-917q-31 0 -31 31z" />
<glyph unicode="{" horiz-adv-x="872" d="M51 645v129q0 15 11 26t26 11q21 2 43 12.5t45.5 32t38 62t14.5 94.5v121q0 102 29 178.5t77.5 124.5t121 78t151 41.5t176.5 11.5q15 0 26 -11t11 -26v-250q0 -15 -11 -26t-26 -11q-57 -1 -91.5 -6t-62.5 -21t-40 -46t-12 -78v-78q0 -51 -12.5 -92.5t-30 -65t-35.5 -39 t-30 -21.5l-13 -5v-160q5 -2 13 -6t29 -21t37 -40t29 -65t13 -93v-78q0 -93 46 -121.5t160 -30.5q15 0 26 -11t11 -26v-250q0 -15 -11 -25.5t-26 -10.5q-98 0 -176.5 11.5t-151 41.5t-121 78t-77.5 124.5t-29 178.5v121q0 54 -14.5 94.5t-38 61.5t-45.5 31.5t-43 12.5 q-15 0 -26 11t-11 26z" />
<glyph unicode="|" horiz-adv-x="446" d="M51 -238v1764q0 30 31 30h283q30 0 30 -30v-1764q0 -30 -30 -30h-283q-31 0 -31 30z" />
<glyph unicode="}" horiz-adv-x="872" d="M51 -111v250q0 15 11 26t26 11q57 1 91.5 6.5t63 21t40.5 46t12 78.5v78q0 51 12.5 93t30.5 65.5t35.5 39.5t30.5 22l12 5v160q-5 2 -13 5.5t-29 20.5t-37 39.5t-29 64.5t-13 93v78q0 48 -12 78t-40.5 46t-63 21t-91.5 6q-15 0 -26 11t-11 26v250q0 15 11 26t26 11 q98 0 176.5 -11.5t151 -41.5t121 -78t77.5 -124.5t29 -178.5v-121q0 -54 14.5 -94.5t38 -62t45.5 -32t43 -12.5q15 0 26 -11t11 -26v-129q0 -15 -11 -26t-26 -11q-21 -2 -43 -12.5t-45.5 -31.5t-38 -61.5t-14.5 -94.5v-121q0 -102 -29 -178.5t-77.5 -124.5t-121 -78 t-151 -41.5t-176.5 -11.5q-15 0 -26 10.5t-11 25.5z" />
<glyph unicode="&#xa1;" horiz-adv-x="487" d="M51 1083q0 79 56.5 136t136.5 57q79 0 135.5 -56.5t56.5 -136.5q0 -79 -56 -135.5t-136 -56.5t-136.5 56.5t-56.5 135.5zM68 -518v1192q0 31 30 31h283q31 0 31 -31v-1192q0 -31 -31 -31h-283q-30 0 -30 31z" />
<glyph unicode="&#xa2;" horiz-adv-x="1134" d="M51 621q0 105 34 195.5t91.5 152.5t129.5 102.5t153 56.5l2 144q-3 31 31 31h184q31 0 31 -31v-162q42 -16 74.5 -40.5t44.5 -41.5l12 -16h4l-4 80q-3 30 30 30h185q30 0 30 -30v-400q0 -30 -30 -30h-230q-30 0 -30 30v25q-3 56 -52.5 91.5t-126.5 35.5q-83 0 -148 -57 t-65 -164q0 -109 66.5 -170.5t165.5 -61.5q40 0 80 12.5t68.5 30t51.5 34.5t35 30l11 12q24 28 47 2l137 -150q22 -25 4 -49q-9 -14 -31.5 -37.5t-65.5 -59t-113 -65.5t-150 -42v-107q0 -31 -31 -31h-187q-30 0 -30 31v113q-182 40 -295 173t-113 333z" />
<glyph unicode="&#xa3;" horiz-adv-x="1361" d="M51 594v164q0 30 31 30h145q-88 107 -88 220q0 72 21.5 139t69 128.5t116 107.5t169.5 73t222 27q135 0 244 -40t180.5 -111t109.5 -168t38 -212v-30q0 -31 -31 -31h-305q-31 0 -31 31v30q0 88 -56.5 144.5t-148.5 56.5t-148.5 -49.5t-56.5 -134.5q0 -20 5.5 -39.5 t11 -32t21.5 -31t22.5 -25t30 -27.5t28.5 -26h443q30 0 30 -30v-164q0 -31 -30 -31h-330v-18q0 -123 -117 -236h633q31 0 31 -30v-248q0 -31 -31 -31h-1147q-31 0 -31 31v229q0 24 5.5 35.5t21.5 17.5q1 0 24.5 6.5t48 14.5t56.5 26.5t56.5 41.5t41.5 60.5t17 82.5 q0 12 -2 18h-289q-31 0 -31 31z" />
<glyph unicode="&#xa5;" horiz-adv-x="1615" d="M51 1192v248q0 30 31 30h625q30 0 30 -30v-248q0 -31 -30 -31h-103l191 -299h20l195 299h-101q-30 0 -30 31v248q0 30 30 30h625q31 0 31 -30v-248q0 -31 -31 -31h-139l-142 -205h64q31 0 31 -30v-183q0 -30 -31 -30h-230l-34 -49v-2h153q31 0 31 -31v-182q0 -31 -31 -31 h-217v-109h131q31 0 31 -30v-248q0 -31 -31 -31h-624q-31 0 -31 31v248q0 30 31 30h131v109h-234q-31 0 -31 31v182q0 31 31 31h164v2l-35 49h-237q-31 0 -31 30v183q0 30 31 30h73l-137 205h-139q-31 0 -31 31z" />
<glyph unicode="&#xa6;" horiz-adv-x="446" d="M51 -238v656q0 31 31 31h283q30 0 30 -31v-656q0 -30 -30 -30h-283q-31 0 -31 30zM51 870v656q0 30 31 30h283q30 0 30 -30v-656q0 -30 -30 -30h-283q-31 0 -31 30z" />
<glyph unicode="&#xa7;" horiz-adv-x="1351" d="M51 88q0 31 31 31h305q31 0 31 -31v-39q3 -11 8.5 -26t26 -45.5t48.5 -54t79 -42t114 -18.5q65 0 106.5 31t41.5 77q0 33 -26 59t-70 44.5t-101.5 35t-120.5 35t-126 41t-120.5 56.5t-101.5 77.5t-70 108.5t-26 145q0 139 65 242q-65 90 -65 219q0 199 135.5 324 t364.5 125q231 0 354 -123l-8 80q-3 30 30 30h265q30 0 30 -30v-518q0 -31 -30 -31h-306q-30 0 -30 31v26q0 73 -63.5 131t-186.5 58q-69 0 -107.5 -27.5t-38.5 -75.5q0 -46 35 -80.5t92 -55t129.5 -42.5t149 -41.5t149 -53t129.5 -75.5t92 -111.5t35 -158.5 q0 -141 -73 -244q73 -89 73 -217q0 -84 -29 -158.5t-87.5 -136.5t-158 -98.5t-228.5 -36.5q-76 0 -147.5 15t-118.5 36.5t-83.5 42.5t-53.5 36l-17 15h-4l4 -100q3 -31 -31 -31h-264q-31 0 -31 31v518zM489 573q0 -31 16.5 -57t42.5 -44t66.5 -34.5t81.5 -29t95 -27.5 q20 -5 30 -8q21 24 21 59q0 20 -9 37.5t-29.5 32t-40.5 25.5t-56.5 23t-62.5 20t-72.5 21t-73.5 21q-9 -18 -9 -39z" />
<glyph unicode="&#xa8;" horiz-adv-x="761" d="M51 1284q0 57 39 97t96 40t97.5 -40t40.5 -97t-40.5 -96t-97.5 -39t-96 39t-39 96zM438 1284q0 57 39 97t96 40t97.5 -40t40.5 -97t-40.5 -96t-97.5 -39t-96 39t-39 96z" />
<glyph unicode="&#xa9;" horiz-adv-x="1318" d="M51 713q0 121 49 233.5t131 194.5t194.5 131t233.5 49q162 0 302.5 -82.5t223.5 -223t83 -302.5t-83 -302.5t-223.5 -223.5t-302.5 -83t-302.5 83t-223 223.5t-82.5 302.5zM229 713q0 -117 57.5 -216t156.5 -156.5t216 -57.5q179 0 305 126t126 304t-126 304t-305 126 q-117 0 -216 -57.5t-156.5 -156.5t-57.5 -216zM309 719q0 164 101.5 262t244.5 98q64 0 117 -18t86.5 -46.5t51.5 -50.5t28 -42q12 -17 -6 -29l-117 -86q-18 -12 -27 2q-36 70 -133 70q-54 0 -95.5 -43.5t-41.5 -114.5q0 -73 42.5 -117.5t107.5 -44.5q94 0 123 57 q10 17 24 7l115 -78q18 -12 6 -29q-8 -15 -19.5 -31.5t-36 -40.5t-53.5 -42t-74.5 -31t-97.5 -13q-143 0 -244.5 98.5t-101.5 262.5z" />
<glyph unicode="&#xaa;" horiz-adv-x="649" d="M51 1112q0 79 64 120.5t188 41.5h62v2q0 47 -74 47q-38 0 -67 -8.5t-44 -16.5t-18 -8q-12 0 -17 8l-67 93q-7 10 2 16q3 3 9 8t26.5 18.5t44 23.5t62.5 18t81 8q107 0 170.5 -52.5t63.5 -164.5v-152h47q14 0 14 -14v-113q0 -16 -14 -16h-144q-49 0 -49 51v31h-2 q-2 -4 -5.5 -10t-18 -21.5t-32 -27.5t-48 -21.5t-64.5 -9.5q-79 0 -124.5 41t-45.5 108zM238 1147q0 -35 57 -35q45 0 70 33v47h-48q-44 0 -61.5 -11t-17.5 -34z" />
<glyph unicode="&#xab;" horiz-adv-x="1210" d="M51 502v53q0 33 37 59l500 342q14 9 25.5 4t11.5 -20v-195q0 -14 -11.5 -30.5t-25.5 -26.5l-238 -160l238 -159q14 -9 25.5 -26.5t11.5 -31.5v-194q0 -15 -11.5 -20.5t-25.5 3.5l-500 342q-15 11 -26 28t-11 32zM586 502v53q0 33 37 59l499 342q14 9 25.5 4t11.5 -20 v-195q0 -14 -11.5 -30.5t-25.5 -26.5l-237 -160l237 -159q14 -9 25.5 -26.5t11.5 -31.5v-194q0 -15 -11.5 -20.5t-25.5 3.5l-499 342q-15 11 -26 28t-11 32z" />
<glyph unicode="&#xac;" horiz-adv-x="1214" d="M51 633v198q0 15 11 26t26 11h1038q15 0 26 -11t11 -26v-512q0 -30 -30 -30h-218q-30 0 -30 30v277h-797q-15 0 -26 11t-11 26z" />
<glyph unicode="&#xad;" horiz-adv-x="870" d="M51 420v250q0 15 11 26t26 11h694q15 0 26 -11t11 -26v-250q0 -15 -11 -26t-26 -11h-694q-15 0 -26 11t-11 26z" />
<glyph unicode="&#xae;" horiz-adv-x="1318" d="M51 713q0 121 49 233.5t131 194.5t194.5 131t233.5 49q162 0 302.5 -82.5t223.5 -223t83 -302.5t-83 -302.5t-223.5 -223.5t-302.5 -83t-302.5 83t-223 223.5t-82.5 302.5zM207 713q0 -188 132.5 -320.5t319.5 -132.5t319 132.5t132 320.5q0 187 -131.5 318.5 t-319.5 131.5t-320 -131.5t-132 -318.5zM393 379v143q0 10 10 10h31v379h-31q-10 0 -10 13v143q0 10 10 10h291q108 0 171 -61.5t63 -169.5q0 -74 -34.5 -124.5t-98.5 -72.5q10 -14 18 -26l53 -91h76q10 0 10 -10v-143q0 -12 -10 -12h-137q-31 0 -53 45l-105 192 q-9 17 -16 23t-19 8h-8v-103h47q13 0 13 -10v-143q0 -12 -13 -12h-248q-10 0 -10 12zM604 780h84q62 0 62 66q0 65 -62 65h-84v-131z" />
<glyph unicode="&#xaf;" horiz-adv-x="849" d="M51 1159v199q0 15 11 26t26 11h674q15 0 26 -11t11 -26v-199q0 -15 -11 -26t-26 -11h-674q-15 0 -26 11t-11 26z" />
<glyph unicode="&#xb0;" horiz-adv-x="415" d="M51 1016q0 70 45.5 117t110.5 47q66 0 112 -47t46 -117q0 -81 -45.5 -124.5t-112.5 -43.5q-66 0 -111 43.5t-45 124.5zM158 1016q0 -28 14.5 -43t34.5 -15q22 0 36.5 15t14.5 43q0 24 -14.5 38.5t-36.5 14.5q-21 0 -35 -14.5t-14 -38.5z" />
<glyph unicode="&#xb1;" horiz-adv-x="786" d="M51 59v250q0 15 11 26t26 11h610q15 0 26 -11t11 -26v-250q0 -15 -11 -25.5t-26 -10.5h-610q-15 0 -26 10.5t-11 25.5zM51 618v250q0 15 11 26t26 11h141v152q0 30 31 30h283q30 0 30 -30v-152h125q15 0 26 -11t11 -26v-250q0 -15 -11 -25.5t-26 -10.5h-125v-117 q0 -31 -30 -31h-283q-31 0 -31 31v117h-141q-15 0 -26 10.5t-11 25.5z" />
<glyph unicode="&#xb4;" horiz-adv-x="724" d="M52.5 1293q1.5 15 13.5 26l397 360q12 9 27.5 7.5t25.5 -13.5l150 -178q9 -12 8 -27t-12 -24l-429 -326q-12 -9 -27.5 -7.5t-25.5 13.5l-119 142q-10 12 -8.5 27z" />
<glyph unicode="&#xb6;" horiz-adv-x="1624" d="M51 969q0 123 36.5 219.5t101.5 157.5t152 92.5t191 31.5h1010q31 0 31 -30v-248q0 -31 -31 -31h-49v-1290q0 -31 -31 -31h-301q-31 0 -31 31v1290h-133v-1290q0 -31 -30 -31h-301q-31 0 -31 31v612h-82q-231 0 -366.5 121.5t-135.5 364.5z" />
<glyph unicode="&#xb8;" horiz-adv-x="518" d="M53 -247.5q-3 14.5 6 28.5l29 39q9 12 24 14t29 -8q11 -7 41 -18t60 -11q57 0 57 37q0 24 -12.5 34.5t-48.5 10.5q-41 0 -54 7t-4 32l45 121h131l-26 -78q10 0 22.5 -1.5t34 -8.5t38.5 -19.5t29.5 -38t12.5 -59.5q0 -78 -53 -125t-140 -47q-55 0 -106.5 17t-75.5 34 l-24 17q-12 8 -15 22.5z" />
<glyph unicode="&#xba;" horiz-adv-x="595" d="M51 1227q0 118 72.5 187t175.5 69t174.5 -69.5t71.5 -186.5t-71.5 -189.5t-174.5 -72.5t-175.5 72t-72.5 190zM201 1225q0 -50 29 -79.5t69 -29.5t67 29t27 80q0 50 -28 79t-66 29q-39 0 -68.5 -29t-29.5 -79z" />
<glyph unicode="&#xbb;" horiz-adv-x="1210" d="M51 117v194q0 14 11.5 31.5t25.5 26.5l238 159l-238 160q-14 10 -25.5 26.5t-11.5 30.5v195q0 15 11.5 20t25.5 -4l500 -342q37 -26 37 -59v-53q0 -15 -11 -32t-26 -28l-500 -342q-14 -9 -25.5 -3.5t-11.5 20.5zM586 117v194q0 14 11.5 31.5t25.5 26.5l237 159l-237 160 q-14 10 -25.5 26.5t-11.5 30.5v195q0 15 12 20t25 -4l499 -342q37 -26 37 -59v-53q0 -15 -11 -32t-26 -28l-499 -342q-13 -9 -25 -3.5t-12 20.5z" />
<glyph unicode="&#xbd;" horiz-adv-x="1622" d="M55 1311q-8 11 4 20l205 142q4 4 19 4h155q15 0 15 -17v-555h118q17 0 17 -14v-135q0 -15 -17 -15h-471q-16 0 -16 15v135q0 14 16 14h154v363l-102 -70q-12 -8 -21 4zM369 -121l473 1647q9 30 39 30h282q32 0 23 -30l-473 -1647q-9 -31 -39 -31h-283q-31 0 -22 31z M967 14v80q2 64 23.5 113t55.5 78.5t74.5 51.5t80.5 37t73 29t53.5 34t20.5 46q0 82 -95 82q-49 0 -75.5 -29t-26.5 -75q0 -15 -16 -15h-152q-16 0 -16 15q0 120 76.5 200t209.5 80q147 0 223 -70t76 -167q0 -58 -23 -102.5t-57.5 -69.5t-77.5 -47t-82 -36.5t-71.5 -36.5 t-44.5 -48h190v55q0 14 17 14h151q17 0 17 -14v-205q0 -14 -17 -14h-571q-16 0 -16 14z" />
<glyph unicode="&#xbf;" horiz-adv-x="1271" d="M51 -254q0 86 16.5 155t44.5 116t64.5 84t76.5 63t80 49.5t76.5 47.5t64.5 51t44.5 67t16.5 90q0 31 30 31h355q30 0 30 -31q0 -103 -28 -183.5t-72.5 -129t-98.5 -86.5t-108 -66.5t-98.5 -56.5t-72.5 -68.5t-28 -93.5q0 -85 56.5 -134.5t148.5 -49.5t148.5 56t56.5 144 q0 31 31 31h305q31 0 31 -31q0 -115 -38 -211.5t-109.5 -167.5t-180.5 -111t-244 -40q-121 0 -222 27t-169.5 73t-116 107.5t-69 128.5t-21.5 139zM551 829q0 80 56.5 136.5t135.5 56.5t136 -57t57 -136t-56.5 -135.5t-136.5 -56.5q-79 0 -135.5 56.5t-56.5 135.5z" />
<glyph unicode="&#xc0;" horiz-adv-x="1660" d="M51 31v248q0 30 31 30h131l332 852h-154q-31 0 -31 31v248q0 30 31 30h479q70 0 105 -29.5t65 -107.5l406 -1024h133q31 0 31 -30v-248q0 -31 -31 -31h-625q-30 0 -30 31v248q0 30 30 30h129l-49 129h-409l-50 -129h132q30 0 30 -30v-248q0 -31 -30 -31h-625 q-31 0 -31 31zM389 1933q-1 15 8 27l150 178q11 12 26.5 14t26.5 -8l397 -360q12 -11 13 -26t-9 -27l-118 -142q-10 -12 -26 -13.5t-28 7.5l-428 326q-11 9 -12 24zM729 713h203l-96 264h-11z" />
<glyph unicode="&#xc1;" horiz-adv-x="1660" d="M51 31v248q0 30 31 30h131l332 852h-154q-31 0 -31 31v248q0 30 31 30h479q70 0 105 -29.5t65 -107.5l406 -1024h133q31 0 31 -30v-248q0 -31 -31 -31h-625q-30 0 -30 31v248q0 30 30 30h129l-49 129h-409l-50 -129h132q30 0 30 -30v-248q0 -31 -30 -31h-625 q-31 0 -31 31zM685 1756q1 15 13 26l398 360q12 9 27.5 7.5t25.5 -13.5l149 -178q9 -12 8 -27t-12 -24l-428 -326q-12 -9 -27.5 -7.5t-25.5 13.5l-119 142q-10 12 -9 27zM729 713h203l-96 264h-11z" />
<glyph unicode="&#xc2;" horiz-adv-x="1660" d="M51 31v248q0 30 31 30h131l332 852h-154q-31 0 -31 31v248q0 30 31 30h479q70 0 105 -29.5t65 -107.5l406 -1024h133q31 0 31 -30v-248q0 -31 -31 -31h-625q-30 0 -30 31v248q0 30 30 30h129l-49 129h-409l-50 -129h132q30 0 30 -30v-248q0 -31 -30 -31h-625 q-31 0 -31 31zM402 1756q1 15 12 26l366 332q8 8 23 8q12 0 28 -13l363 -327q11 -11 12 -26t-8 -27l-117 -138q-9 -12 -24 -13t-27 9l-227 207l-225 -207q-10 -11 -26.5 -9.5t-25.5 13.5l-116 138q-9 12 -8 27zM729 713h203l-96 264h-11z" />
<glyph unicode="&#xc3;" horiz-adv-x="1660" d="M51 31v248q0 30 31 30h131l332 852h-154q-31 0 -31 31v248q0 30 31 30h479q70 0 105 -29.5t65 -107.5l406 -1024h133q31 0 31 -30v-248q0 -31 -31 -31h-625q-30 0 -30 31v248q0 30 30 30h129l-49 129h-409l-50 -129h132q30 0 30 -30v-248q0 -31 -30 -31h-625 q-31 0 -31 31zM385 1612q0 143 60.5 227t181.5 84q50 0 92 -15.5t70 -37.5t51.5 -44t49.5 -37.5t52 -16.5q39 0 59.5 28.5t20.5 106.5q0 30 31 30h114q31 0 31 -30q0 -147 -60 -230.5t-182 -83.5q-60 0 -110 22t-77.5 48t-61.5 48t-66 22q-40 0 -60 -24t-20 -97 q0 -31 -31 -31h-114q-31 0 -31 31zM729 713h203l-96 264h-11z" />
<glyph unicode="&#xc4;" horiz-adv-x="1660" d="M51 31v248q0 30 31 30h131l332 852h-154q-31 0 -31 31v248q0 30 31 30h479q70 0 105 -29.5t65 -107.5l406 -1024h133q31 0 31 -30v-248q0 -31 -31 -31h-625q-30 0 -30 31v248q0 30 30 30h129l-49 129h-409l-50 -129h132q30 0 30 -30v-248q0 -31 -30 -31h-625 q-31 0 -31 31zM479 1747q0 57 39 97t96 40t97.5 -40t40.5 -97t-40.5 -96t-97.5 -39t-96 39t-39 96zM729 713h203l-96 264h-11zM866 1747q0 57 39 97t96 40t97.5 -40t40.5 -97t-40.5 -96t-97.5 -39t-96 39t-39 96z" />
<glyph unicode="&#xc5;" horiz-adv-x="1660" d="M51 31v248q0 30 31 30h131l332 852h-154q-31 0 -31 31v248q0 30 31 30h479q70 0 105 -29.5t65 -107.5l406 -1024h133q31 0 31 -30v-248q0 -31 -31 -31h-625q-30 0 -30 31v248q0 30 30 30h129l-49 129h-409l-50 -129h132q30 0 30 -30v-248q0 -31 -30 -31h-625 q-31 0 -31 31zM641 1757q0 72 50 124t122 52t122 -52t50 -124t-50 -124t-122 -52t-122 52t-50 124zM729 713h203l-96 264h-11zM760 1757q0 -24 15 -40.5t38 -16.5t38 16.5t15 40.5t-15 41t-38 17t-38 -17t-15 -41z" />
<glyph unicode="&#xc6;" horiz-adv-x="2203" d="M51 31v248q0 30 31 30h131l332 852h-154q-31 0 -31 31v248q0 30 31 30h1731q30 0 30 -30v-473q0 -31 -30 -31h-252q-31 0 -31 31v194h-395v-272h319q31 0 31 -31v-248q0 -30 -31 -30h-319v-271h393v195q0 31 31 31h254q30 0 30 -31v-473q0 -31 -30 -31h-1172 q-30 0 -30 31v248q0 30 30 30h131v271h-403l-103 -271h132q30 0 30 -30v-248q0 -31 -30 -31h-625q-31 0 -31 31zM795 889h286v272h-178z" />
<glyph unicode="&#xc7;" horiz-adv-x="1542" d="M51 743q0 145 39.5 267.5t107.5 208.5t159 146.5t194 89t213 28.5q262 0 373 -152l-7 109q-1 15 7.5 22.5t23.5 7.5h264q31 0 31 -30v-518q0 -31 -31 -31h-305q-30 0 -30 31v20q0 65 -82.5 130t-216.5 65q-157 0 -253 -106.5t-96 -293.5q0 -87 31 -162.5t82 -125.5 t117 -78.5t137 -28.5q45 0 86.5 5.5t74 14t63 22.5t52 27t42.5 31t33.5 31t26.5 31t19.5 27t13.5 23t9 15q16 28 41 9l207 -142q21 -16 8 -45q-102 -230 -334 -334q-133 -60 -299 -69l-8 -27q10 0 22.5 -1.5t34 -8.5t38.5 -19.5t29.5 -38t12.5 -59.5q0 -78 -53 -125 t-140 -47q-55 0 -106.5 17t-75.5 34l-24 17q-12 8 -15 22.5t6 28.5l29 39q9 12 24 14t29 -8q11 -7 41 -18t60 -11q57 0 57 37q0 24 -12.5 34.5t-48.5 10.5q-41 0 -54 7t-4 32l27 72q-140 11 -261.5 66.5t-212.5 149.5t-143.5 232.5t-52.5 304.5z" />
<glyph unicode="&#xc8;" horiz-adv-x="1335" d="M51 31v248q0 30 31 30h131v852h-131q-31 0 -31 31v248q0 30 31 30h1171q31 0 31 -30v-473q0 -31 -31 -31h-252q-30 0 -30 31v194h-396v-272h320q31 0 31 -31v-248q0 -30 -31 -30h-320v-271h394v195q0 31 30 31h254q31 0 31 -31v-473q0 -31 -31 -31h-1171q-31 0 -31 31z M297 1933q-1 15 8 27l150 178q11 12 26.5 14t26.5 -8l397 -360q12 -11 13 -26t-9 -27l-118 -142q-10 -12 -26 -13.5t-28 7.5l-428 326q-11 9 -12 24z" />
<glyph unicode="&#xc9;" horiz-adv-x="1335" d="M51 31v248q0 30 31 30h131v852h-131q-31 0 -31 31v248q0 30 31 30h1171q31 0 31 -30v-473q0 -31 -31 -31h-252q-30 0 -30 31v194h-396v-272h320q31 0 31 -31v-248q0 -30 -31 -30h-320v-271h394v195q0 31 30 31h254q31 0 31 -31v-473q0 -31 -31 -31h-1171q-31 0 -31 31z M523.5 1756q1.5 15 13.5 26l397 360q12 9 27.5 7.5t25.5 -13.5l150 -178q9 -12 8 -27t-12 -24l-428 -326q-12 -9 -28 -7.5t-26 13.5l-119 142q-10 12 -8.5 27z" />
<glyph unicode="&#xca;" horiz-adv-x="1335" d="M51 31v248q0 30 31 30h131v852h-131q-31 0 -31 31v248q0 30 31 30h1171q31 0 31 -30v-473q0 -31 -31 -31h-252q-30 0 -30 31v194h-396v-272h320q31 0 31 -31v-248q0 -30 -31 -30h-320v-271h394v195q0 31 30 31h254q31 0 31 -31v-473q0 -31 -31 -31h-1171q-31 0 -31 31z M252 1756q1 15 12 26l367 332q8 8 22 8q13 0 29 -13l362 -327q11 -11 12.5 -26t-7.5 -27l-117 -138q-9 -12 -24 -13t-27 9l-228 207l-225 -207q-11 -10 -26.5 -9t-24.5 13l-117 138q-9 12 -8 27z" />
<glyph unicode="&#xcb;" horiz-adv-x="1335" d="M51 31v248q0 30 31 30h131v852h-131q-31 0 -31 31v248q0 30 31 30h1171q31 0 31 -30v-473q0 -31 -31 -31h-252q-30 0 -30 31v194h-396v-272h320q31 0 31 -31v-248q0 -30 -31 -30h-320v-271h394v195q0 31 30 31h254q31 0 31 -31v-473q0 -31 -31 -31h-1171q-31 0 -31 31z M420 1747q0 57 39 97t96 40t97 -40t40 -97t-40 -96t-97 -39t-96 39t-39 96zM807 1747q0 57 39 97t96 40t97 -40t40 -97t-40 -96t-97 -39t-96 39t-39 96z" />
<glyph unicode="&#xcc;" horiz-adv-x="884" d="M51 1933q-1 15 8 27l150 178q11 12 26.5 14t26.5 -8l397 -360q12 -11 13.5 -26t-8.5 -27l-119 -142q-10 -12 -25.5 -13.5t-27.5 7.5l-429 326q-11 9 -12 24zM147 31v248q0 30 31 30h131v852h-131q-31 0 -31 31v248q0 30 31 30h625q31 0 31 -30v-248q0 -31 -31 -31h-131 v-852h131q31 0 31 -30v-248q0 -31 -31 -31h-625q-31 0 -31 31z" />
<glyph unicode="&#xcd;" horiz-adv-x="923" d="M51 31v248q0 30 31 30h131v852h-131q-31 0 -31 31v248q0 30 31 30h625q30 0 30 -30v-248q0 -31 -30 -31h-132v-852h132q30 0 30 -30v-248q0 -31 -30 -31h-625q-31 0 -31 31zM251 1756q1 15 13 26l398 360q12 9 27.5 7.5t25.5 -13.5l149 -178q9 -12 8 -27t-12 -24 l-428 -326q-12 -9 -27.5 -7.5t-25.5 13.5l-119 142q-10 12 -9 27z" />
<glyph unicode="&#xce;" horiz-adv-x="907" d="M51 1756q1 15 12 26l367 332q8 8 23 8q12 0 28 -13l363 -327q11 -11 12 -26t-8 -27l-117 -138q-9 -12 -24 -13t-27 9l-227 207l-226 -207q-11 -10 -26.5 -9t-24.5 13l-117 138q-9 12 -8 27zM100 31v248q0 30 31 30h131v852h-131q-31 0 -31 31v248q0 30 31 30h625 q30 0 30 -30v-248q0 -31 -30 -31h-131v-852h131q30 0 30 -30v-248q0 -31 -30 -31h-625q-31 0 -31 31z" />
<glyph unicode="&#xcf;" horiz-adv-x="790" d="M51 31v248q0 30 31 30h131v852h-131q-31 0 -31 31v248q0 30 31 30h625q30 0 30 -30v-248q0 -31 -30 -31h-132v-852h132q30 0 30 -30v-248q0 -31 -30 -31h-625q-31 0 -31 31zM80 1747q0 57 39 97t96 40t97 -40t40 -97t-40 -96t-97 -39t-96 39t-39 96zM467 1747q0 57 39 97 t96 40t97 -40t40 -97t-40 -96t-97 -39t-96 39t-39 96z" />
<glyph unicode="&#xd0;" horiz-adv-x="1474" d="M51 621v198q0 15 11 26t26 11h127v305h-131q-31 0 -31 31v248q0 30 31 30h578q118 0 229 -30.5t207.5 -93.5t169 -151.5t114 -212t41.5 -267.5q0 -162 -55 -299t-146 -226.5t-206.5 -139.5t-239.5 -50h-692q-31 0 -31 31v248q0 30 31 30h131v275h-127q-15 0 -26 11 t-11 26zM578 309h53q99 2 170.5 21.5t126.5 64.5t82.5 123.5t27.5 192.5q0 450 -434 450h-26v-305h184q15 0 26 -11t11 -26v-198q0 -15 -11 -26t-26 -11h-184v-275z" />
<glyph unicode="&#xd1;" horiz-adv-x="1634" d="M51 31v248q0 30 31 30h131v852h-131q-31 0 -31 31v248q0 30 31 30h412q37 0 66 -18t43 -37t38 -59l303 -502q24 -39 50.5 -92t41.5 -86l15 -33h8v518h-131q-31 0 -31 31v248q0 30 31 30h624q31 0 31 -30v-248q0 -31 -31 -31h-131v-1130q0 -31 -30 -31h-252 q-50 0 -82 24.5t-64 73.5l-344 537q-16 24 -32.5 56.5t-25.5 53.5l-9 21h-7v-457h132q30 0 30 -30v-248q0 -31 -30 -31h-625q-31 0 -31 31zM408 1612q0 143 60 227t181 84q50 0 92.5 -15.5t70 -37.5t51.5 -44t50 -37.5t52 -16.5q39 0 59 28.5t20 106.5q0 30 31 30h115 q31 0 31 -30q0 -147 -60 -230.5t-182 -83.5q-60 0 -110 22t-77.5 48t-61.5 48t-66 22q-40 0 -60 -24t-20 -97q0 -31 -31 -31h-115q-30 0 -30 31z" />
<glyph unicode="&#xd2;" horiz-adv-x="1593" d="M51 743q0 145 43 268t116 208.5t169 146t202 89t216 28.5t216 -28.5t202 -89t168.5 -146t115.5 -208.5t43 -268q0 -231 -99 -404.5t-267 -263t-379 -89.5q-156 0 -293.5 56.5t-237 155t-157.5 240.5t-58 305zM326 1933q-1 15 8 27l149 178q11 12 27 14t27 -8l397 -360 q12 -11 13 -26t-9 -27l-119 -142q-10 -12 -25.5 -13.5t-27.5 7.5l-428 326q-11 9 -12 24zM442 737q0 -175 100.5 -294t254.5 -119t254 119t100 294q0 188 -100 303t-256 115q-154 0 -253.5 -115.5t-99.5 -302.5z" />
<glyph unicode="&#xd3;" horiz-adv-x="1593" d="M51 743q0 145 43 268t116 208.5t169 146t202 89t216 28.5t216 -28.5t202 -89t168.5 -146t115.5 -208.5t43 -268q0 -231 -99 -404.5t-267 -263t-379 -89.5q-156 0 -293.5 56.5t-237 155t-157.5 240.5t-58 305zM442 737q0 -175 100.5 -294t254.5 -119t254 119t100 294 q0 188 -100 303t-256 115q-154 0 -253.5 -115.5t-99.5 -302.5zM480.5 1756q1.5 15 13.5 26l397 360q12 9 27.5 7.5t25.5 -13.5l150 -178q9 -12 8 -27t-12 -24l-428 -326q-12 -9 -28 -7.5t-26 13.5l-119 142q-10 12 -8.5 27z" />
<glyph unicode="&#xd4;" horiz-adv-x="1593" d="M51 743q0 145 43 268t116 208.5t169 146t202 89t216 28.5t216 -28.5t202 -89t168.5 -146t115.5 -208.5t43 -268q0 -231 -99 -404.5t-267 -263t-379 -89.5q-156 0 -293.5 56.5t-237 155t-157.5 240.5t-58 305zM406 1756q1 15 12 26l366 332q8 8 23 8q13 0 29 -13l362 -327 q11 -11 12 -26t-8 -27l-117 -138q-9 -12 -24 -13t-27 9l-227 207l-225 -207q-10 -11 -26.5 -9.5t-25.5 13.5l-116 138q-9 12 -8 27zM442 737q0 -175 100.5 -294t254.5 -119t254 119t100 294q0 188 -100 303t-256 115q-154 0 -253.5 -115.5t-99.5 -302.5z" />
<glyph unicode="&#xd5;" horiz-adv-x="1593" d="M51 743q0 145 43 268t116 208.5t169 146t202 89t216 28.5t216 -28.5t202 -89t168.5 -146t115.5 -208.5t43 -268q0 -231 -99 -404.5t-267 -263t-379 -89.5q-156 0 -293.5 56.5t-237 155t-157.5 240.5t-58 305zM442 737q0 -175 100.5 -294t254.5 -119t254 119t100 294 q0 188 -100 303t-256 115q-154 0 -253.5 -115.5t-99.5 -302.5zM444 1612q0 143 60.5 227t181.5 84q50 0 92 -15.5t70 -37.5t51.5 -44t49.5 -37.5t52 -16.5q39 0 59.5 28.5t20.5 106.5q0 30 31 30h115q30 0 30 -30q0 -147 -59.5 -230.5t-181.5 -83.5q-49 0 -91 14.5t-70 35 t-52 41t-50 35t-53 14.5q-40 0 -59.5 -24t-19.5 -97q0 -31 -31 -31h-115q-31 0 -31 31z" />
<glyph unicode="&#xd6;" horiz-adv-x="1593" d="M51 743q0 145 43 268t116 208.5t169 146t202 89t216 28.5t216 -28.5t202 -89t168.5 -146t115.5 -208.5t43 -268q0 -231 -99 -404.5t-267 -263t-379 -89.5q-156 0 -293.5 56.5t-237 155t-157.5 240.5t-58 305zM442 737q0 -175 100.5 -294t254.5 -119t254 119t100 294 q0 188 -100 303t-256 115q-154 0 -253.5 -115.5t-99.5 -302.5zM481 1747q0 57 39 97t96 40t97.5 -40t40.5 -97t-40.5 -96t-97.5 -39t-96 39t-39 96zM868 1747q0 57 39.5 97t96.5 40t97 -40t40 -97t-40 -96t-97 -39t-96.5 39t-39.5 96z" />
<glyph unicode="&#xd7;" horiz-adv-x="794" d="M62 466q0 16 10 26l98 98l-107 108q-21 22 0 43l201 201q22 22 43 0l107 -108l90 90q10 10 25 10t26 -10l176 -179q11 -11 11 -26t-11 -25l-88 -88l82 -82q21 -24 0 -45l-199 -198q-22 -21 -43 0l-82 81l-100 -100q-12 -10 -27.5 -10t-25.5 10l-176 178q-10 10 -10 26z " />
<glyph unicode="&#xd8;" horiz-adv-x="1593" d="M51 743q0 145 43 268t116 208.5t169 146t202 89t216 28.5q9 0 26.5 -1t26.5 -1l27 88q9 30 38 30h283q32 0 23 -30l-52 -178q169 -89 271 -253.5t102 -394.5q0 -231 -99 -404.5t-267 -263t-379 -89.5q-5 0 -15.5 1t-15.5 1l-18 -66q-9 -31 -39 -31h-283q-14 0 -20.5 8 t-2.5 23l41 146q-181 93 -287 270.5t-106 404.5zM442 737q0 -187 107 -303l207 719q-2 0 -7.5 -1t-7.5 -1q-134 -21 -216.5 -132.5t-82.5 -281.5zM864 330h4q126 28 204.5 140.5t78.5 266.5q0 172 -88 287z" />
<glyph unicode="&#xd9;" horiz-adv-x="1613" d="M51 1192v248q0 30 31 30h625q30 0 30 -30v-248q0 -31 -30 -31h-132v-620q0 -39 10.5 -74t34.5 -69t73 -54t118 -20q105 0 166 60t61 146v631h-131q-30 0 -30 31v248q0 30 30 30h625q31 0 31 -30v-248q0 -31 -31 -31h-131v-612q0 -273 -161 -418t-429 -145 q-177 0 -310 61.5t-210.5 190t-77.5 311.5v612h-131q-31 0 -31 31zM510 1933q-1 15 8 27l150 178q11 12 26.5 14t26.5 -8l397 -360q12 -11 13 -26t-9 -27l-118 -142q-10 -12 -26 -13.5t-28 7.5l-428 326q-11 9 -12 24z" />
<glyph unicode="&#xda;" horiz-adv-x="1613" d="M51 1192v248q0 30 31 30h625q30 0 30 -30v-248q0 -31 -30 -31h-132v-620q0 -39 10.5 -74t34.5 -69t73 -54t118 -20q105 0 166 60t61 146v631h-131q-30 0 -30 31v248q0 30 30 30h625q31 0 31 -30v-248q0 -31 -31 -31h-131v-612q0 -273 -161 -418t-429 -145 q-177 0 -310 61.5t-210.5 190t-77.5 311.5v612h-131q-31 0 -31 31zM560 1756q1 15 13 26l398 360q12 9 27.5 7.5t25.5 -13.5l150 -178q9 -12 7.5 -27t-12.5 -24l-428 -326q-12 -9 -27.5 -7.5t-25.5 13.5l-119 142q-10 12 -9 27z" />
<glyph unicode="&#xdb;" horiz-adv-x="1613" d="M51 1192v248q0 30 31 30h625q30 0 30 -30v-248q0 -31 -30 -31h-132v-620q0 -39 10.5 -74t34.5 -69t73 -54t118 -20q105 0 166 60t61 146v631h-131q-30 0 -30 31v248q0 30 30 30h625q31 0 31 -30v-248q0 -31 -31 -31h-131v-612q0 -273 -161 -418t-429 -145 q-177 0 -310 61.5t-210.5 190t-77.5 311.5v612h-131q-31 0 -31 31zM412 1756q1 15 12 26l367 332q8 8 22 8q13 0 29 -13l362 -327q11 -11 12 -26t-8 -27l-116 -138q-9 -12 -24.5 -13t-27.5 9l-227 207l-225 -207q-11 -10 -26.5 -9t-24.5 13l-117 138q-9 12 -8 27z" />
<glyph unicode="&#xdc;" horiz-adv-x="1613" d="M51 1192v248q0 30 31 30h625q30 0 30 -30v-248q0 -31 -30 -31h-132v-620q0 -39 10.5 -74t34.5 -69t73 -54t118 -20q105 0 166 60t61 146v631h-131q-30 0 -30 31v248q0 30 30 30h625q31 0 31 -30v-248q0 -31 -31 -31h-131v-612q0 -273 -161 -418t-429 -145 q-177 0 -310 61.5t-210.5 190t-77.5 311.5v612h-131q-31 0 -31 31zM473 1747q0 57 39 97t96 40t97 -40t40 -97t-40 -96t-97 -39t-96 39t-39 96zM860 1747q0 57 39 97t96 40t97.5 -40t40.5 -97t-40.5 -96t-97.5 -39t-96 39t-39 96z" />
<glyph unicode="&#xdd;" horiz-adv-x="1615" d="M51 1192v248q0 30 31 30h625q30 0 30 -30v-248q0 -31 -30 -31h-103l191 -299h20l195 299h-101q-30 0 -30 31v248q0 30 30 30h625q31 0 31 -30v-248q0 -31 -31 -31h-139q-391 -570 -406 -588v-264h131q31 0 31 -30v-248q0 -31 -31 -31h-624q-31 0 -31 31v248q0 30 31 30 h131v256q-29 37 -406 596h-139q-31 0 -31 31zM485 1756q1 15 13 26l397 360q12 9 27.5 7.5t25.5 -13.5l150 -178q9 -12 8 -27t-12 -24l-428 -326q-12 -9 -28 -7.5t-26 13.5l-118 142q-10 12 -9 27z" />
<glyph unicode="&#xde;" d="M51 31v213q0 30 31 30h92v922h-80q-31 0 -31 31v213q0 30 31 30h393q31 0 31 -30l-4 -244h197q243 0 378.5 -117.5t135.5 -328.5q0 -210 -138 -317t-405 -107h-180v-52h147q31 0 31 -30v-213q0 -31 -31 -31h-567q-31 0 -31 31zM506 610h207q70 0 107.5 36t37.5 104 t-37.5 102.5t-107.5 34.5h-203z" />
<glyph unicode="&#xdf;" horiz-adv-x="1544" d="M51 31v213q0 30 31 30h90v689q0 243 147 381.5t392 138.5q99 0 178.5 -20t129.5 -52.5t84 -75.5t48 -86t14 -88q0 -61 -20 -110t-48 -79.5t-56 -55.5t-48 -51.5t-20 -53.5q0 -25 22.5 -47t59 -38t83 -36.5t95.5 -41t95.5 -54t83 -73.5t59 -100.5t22.5 -133.5 q0 -53 -26 -105t-74.5 -96.5t-129 -72t-178.5 -27.5q-51 0 -97.5 8.5t-82.5 21t-69 33t-56.5 40t-46 46t-35.5 46.5t-27 46.5t-19.5 40t-13.5 34t-9 22.5q-12 28 18 41l154 69q29 13 43 -10q3 -5 12 -24.5t17.5 -36.5t25.5 -39t36 -37t49 -26t65 -11q71 0 71 61q0 33 -21 59 t-55 43.5t-77.5 36.5t-89 36t-89 44t-77.5 59t-55 81.5t-21 111.5q0 47 18.5 86.5t44.5 66t52 49t44.5 45t18.5 44.5q0 50 -31.5 81.5t-83.5 31.5q-19 0 -39.5 -4.5t-47 -19.5t-47 -38t-34.5 -65t-14 -96v-689h74q31 0 31 -30v-213q0 -31 -31 -31h-508q-31 0 -31 31z" />
<glyph unicode="&#xe0;" horiz-adv-x="1198" d="M51 283q0 157 129.5 242t376.5 85h123v2q0 48 -40 76.5t-110 28.5q-76 0 -133.5 -16.5t-87.5 -33t-37 -16.5q-20 0 -30 15l-136 172q-14 20 3 34q6 6 17.5 16t53.5 36t89.5 46t125.5 36t162 16q102 0 184.5 -23.5t147 -73.5t100 -135t35.5 -200v-316h92q31 0 31 -30v-213 q0 -31 -31 -31h-285q-47 0 -73.5 26.5t-26.5 73.5v62h-4q-4 -7 -11 -19.5t-36 -43.5t-63.5 -54.5t-95.5 -43t-130 -19.5q-158 0 -249 83t-91 218zM217 1470q-1 15 8 27l150 178q11 12 26.5 14t26.5 -8l397 -360q12 -11 13 -26t-9 -27l-118 -142q-10 -12 -26 -13.5t-28 7.5 l-428 326q-11 9 -12 24zM412 352q0 -41 34.5 -61.5t92.5 -20.5q84 0 141 74v100h-96q-90 0 -131 -21t-41 -71z" />
<glyph unicode="&#xe1;" horiz-adv-x="1198" d="M51 283q0 157 129.5 242t376.5 85h123v2q0 48 -40 76.5t-110 28.5q-76 0 -133.5 -16.5t-87.5 -33t-37 -16.5q-20 0 -30 15l-136 172q-14 20 3 34q6 6 17.5 16t53.5 36t89.5 46t125.5 36t162 16q102 0 184.5 -23.5t147 -73.5t100 -135t35.5 -200v-316h92q31 0 31 -30v-213 q0 -31 -31 -31h-285q-47 0 -73.5 26.5t-26.5 73.5v62h-4q-4 -7 -11 -19.5t-36 -43.5t-63.5 -54.5t-95.5 -43t-130 -19.5q-158 0 -249 83t-91 218zM358 1293q1 15 13 26l397 360q12 9 27.5 7.5t25.5 -13.5l150 -178q9 -12 8 -27t-12 -24l-428 -326q-12 -9 -28 -7.5t-26 13.5 l-118 142q-10 12 -9 27zM412 352q0 -41 34.5 -61.5t92.5 -20.5q84 0 141 74v100h-96q-90 0 -131 -21t-41 -71z" />
<glyph unicode="&#xe2;" horiz-adv-x="1198" d="M51 283q0 157 129.5 242t376.5 85h123v2q0 48 -40 76.5t-110 28.5q-76 0 -133.5 -16.5t-87.5 -33t-37 -16.5q-20 0 -30 15l-136 172q-14 20 3 34q6 6 17.5 16t53.5 36t89.5 46t125.5 36t162 16q102 0 184.5 -23.5t147 -73.5t100 -135t35.5 -200v-316h92q31 0 31 -30v-213 q0 -31 -31 -31h-285q-47 0 -73.5 26.5t-26.5 73.5v62h-4q-4 -7 -11 -19.5t-36 -43.5t-63.5 -54.5t-95.5 -43t-130 -19.5q-158 0 -249 83t-91 218zM228 1293q1 15 12 26l366 332q8 8 23 8q13 0 28 -12l363 -328q11 -11 12 -26t-8 -27l-117 -138q-9 -12 -24 -13t-27 9 l-227 207l-226 -207q-11 -10 -26.5 -9t-24.5 13l-116 138q-9 12 -8 27zM412 352q0 -41 34.5 -61.5t92.5 -20.5q84 0 141 74v100h-96q-90 0 -131 -21t-41 -71z" />
<glyph unicode="&#xe3;" horiz-adv-x="1198" d="M51 283q0 157 129.5 242t376.5 85h123v2q0 48 -40 76.5t-110 28.5q-76 0 -133.5 -16.5t-87.5 -33t-37 -16.5q-20 0 -30 15l-136 172q-14 20 3 34q6 6 17.5 16t53.5 36t89.5 46t125.5 36t162 16q102 0 184.5 -23.5t147 -73.5t100 -135t35.5 -200v-316h92q31 0 31 -30v-213 q0 -31 -31 -31h-285q-47 0 -73.5 26.5t-26.5 73.5v62h-4q-4 -7 -11 -19.5t-36 -43.5t-63.5 -54.5t-95.5 -43t-130 -19.5q-158 0 -249 83t-91 218zM236 1149q0 143 60 227t181 84q50 0 92.5 -15.5t70 -37.5t51.5 -44t50 -37.5t52 -16.5q39 0 59 28.5t20 106.5q0 31 31 31h115 q31 0 31 -31q0 -147 -60 -230.5t-182 -83.5q-60 0 -110 22t-77.5 48t-61.5 48t-66 22q-40 0 -60 -24t-20 -97q0 -31 -31 -31h-115q-30 0 -30 31zM412 352q0 -41 34.5 -61.5t92.5 -20.5q84 0 141 74v100h-96q-90 0 -131 -21t-41 -71z" />
<glyph unicode="&#xe4;" horiz-adv-x="1198" d="M51 283q0 157 129.5 242t376.5 85h123v2q0 48 -40 76.5t-110 28.5q-76 0 -133.5 -16.5t-87.5 -33t-37 -16.5q-20 0 -30 15l-136 172q-14 20 3 34q6 6 17.5 16t53.5 36t89.5 46t125.5 36t162 16q102 0 184.5 -23.5t147 -73.5t100 -135t35.5 -200v-316h92q31 0 31 -30v-213 q0 -31 -31 -31h-285q-47 0 -73.5 26.5t-26.5 73.5v62h-4q-4 -7 -11 -19.5t-36 -43.5t-63.5 -54.5t-95.5 -43t-130 -19.5q-158 0 -249 83t-91 218zM291 1284q0 57 39 97t96 40t97 -40t40 -97t-40 -96t-97 -39t-96 39t-39 96zM412 352q0 -41 34.5 -61.5t92.5 -20.5 q84 0 141 74v100h-96q-90 0 -131 -21t-41 -71zM678 1284q0 57 39 97t96 40t97 -40t40 -97t-40 -96t-97 -39t-96 39t-39 96z" />
<glyph unicode="&#xe5;" horiz-adv-x="1198" d="M51 283q0 157 129.5 242t376.5 85h123v2q0 48 -40 76.5t-110 28.5q-76 0 -133.5 -16.5t-87.5 -33t-37 -16.5q-20 0 -30 15l-136 172q-14 20 3 34q6 6 17.5 16t53.5 36t89.5 46t125.5 36t162 16q102 0 184.5 -23.5t147 -73.5t100 -135t35.5 -200v-316h92q31 0 31 -30v-213 q0 -31 -31 -31h-285q-47 0 -73.5 26.5t-26.5 73.5v62h-4q-4 -7 -11 -19.5t-36 -43.5t-63.5 -54.5t-95.5 -43t-130 -19.5q-158 0 -249 83t-91 218zM412 352q0 -41 34.5 -61.5t92.5 -20.5q84 0 141 74v100h-96q-90 0 -131 -21t-41 -71zM432 1294q0 72 50 124t122 52t122 -52 t50 -124t-50 -124t-122 -52t-122 52t-50 124zM551 1294q0 -24 15 -40.5t38 -16.5t38 16.5t15 40.5t-15 41t-38 17t-38 -17t-15 -41z" />
<glyph unicode="&#xe6;" horiz-adv-x="1757" d="M51 283q0 157 129.5 243t376.5 86h123v2q0 48 -40 75.5t-110 27.5q-76 0 -133.5 -16.5t-87.5 -33t-37 -16.5q-20 0 -30 15l-136 172q-14 20 3 34q6 6 17.5 16t53.5 36t89.5 46t125.5 36t162 16q220 0 338 -104q137 98 307 98q249 0 372.5 -133t123.5 -391q0 -15 -11 -26 t-26 -11h-625q18 -92 79 -138.5t147 -46.5q40 0 81 11.5t70.5 28t53.5 33.5t37 29l12 11q24 28 47 2l129 -143q22 -25 4 -49q-8 -13 -25 -32.5t-58.5 -53t-91.5 -60.5t-128 -47t-164 -20q-139 0 -255.5 52t-191.5 148q-58 -79 -158.5 -137.5t-232.5 -58.5q-158 0 -249 82 t-91 217zM412 352q0 -41 34.5 -61.5t92.5 -20.5q84 0 141 74v109h-96q-90 0 -131 -24.5t-41 -76.5zM1042 623h330q-4 47 -44 87t-111 40q-58 0 -105.5 -30.5t-69.5 -96.5z" />
<glyph unicode="&#xe7;" horiz-adv-x="1134" d="M51 506q0 121 43.5 221t115 163t160 97.5t181.5 34.5q60 0 112 -13t82.5 -31t53 -36.5t31.5 -31.5l8 -13h4l-4 80q-3 31 30 31h185q30 0 30 -31v-399q0 -31 -30 -31h-230q-30 0 -30 31v24q-3 56 -52.5 91.5t-126.5 35.5q-83 0 -148 -57t-65 -164q0 -109 66.5 -170.5 t165.5 -61.5q40 0 80 12.5t68.5 30t51.5 34.5t35 29l11 13q24 28 47 2l137 -149q22 -25 4 -49q-8 -12 -22.5 -28.5t-50.5 -47.5t-78.5 -56t-108.5 -47.5t-139 -29.5l-9 -29q10 0 22.5 -1.5t34.5 -8.5t38.5 -19.5t29.5 -38t13 -59.5q0 -78 -53 -125t-140 -47q-55 0 -106.5 17 t-75.5 34l-25 17q-12 8 -14.5 22.5t6.5 28.5l29 39q9 12 24 14t29 -8q11 -7 40.5 -18t59.5 -11q58 0 58 37q0 23 -13 34t-49 11q-41 0 -53.5 7t-3.5 32l27 72q-103 9 -191 48.5t-154 104t-103.5 158t-37.5 205.5z" />
<glyph unicode="&#xe8;" horiz-adv-x="1128" d="M51 506q0 120 47 220.5t123 163.5t167.5 97.5t184.5 34.5q247 0 371.5 -135.5t124.5 -390.5q0 -15 -11 -26t-26 -11h-624q18 -91 78.5 -137t146.5 -46q40 0 81 11.5t70.5 28t53.5 33.5t36 29l13 11q24 28 47 2l129 -143q22 -25 4 -49q-8 -13 -25 -32.5t-58.5 -53 t-91.5 -60.5t-128 -47t-164 -20q-152 0 -275.5 60.5t-198.5 180.5t-75 279zM244 1470q-1 15 8 27l149 178q11 12 27 14t27 -8l397 -360q12 -11 13 -26t-9 -27l-119 -142q-10 -12 -25.5 -13.5t-27.5 7.5l-428 326q-11 9 -12 24zM414 641h329q-4 41 -44 78t-111 37 q-59 0 -107 -27.5t-67 -87.5z" />
<glyph unicode="&#xe9;" horiz-adv-x="1128" d="M51 506q0 120 47 220.5t123 163.5t167.5 97.5t184.5 34.5q247 0 371.5 -135.5t124.5 -390.5q0 -15 -11 -26t-26 -11h-624q18 -91 78.5 -137t146.5 -46q40 0 81 11.5t70.5 28t53.5 33.5t36 29l13 11q24 28 47 2l129 -143q22 -25 4 -49q-8 -13 -25 -32.5t-58.5 -53 t-91.5 -60.5t-128 -47t-164 -20q-152 0 -275.5 60.5t-198.5 180.5t-75 279zM382 1293q1 15 13 26l398 360q12 9 27.5 7.5t25.5 -13.5l149 -178q9 -12 8 -27t-12 -24l-428 -326q-12 -9 -27.5 -7.5t-25.5 13.5l-119 142q-10 12 -9 27zM414 641h329q-4 41 -44 78t-111 37 q-59 0 -107 -27.5t-67 -87.5z" />
<glyph unicode="&#xea;" horiz-adv-x="1128" d="M51 506q0 120 47 220.5t123 163.5t167.5 97.5t184.5 34.5q247 0 371.5 -135.5t124.5 -390.5q0 -15 -11 -26t-26 -11h-624q18 -91 78.5 -137t146.5 -46q40 0 81 11.5t70.5 28t53.5 33.5t36 29l13 11q24 28 47 2l129 -143q22 -25 4 -49q-8 -13 -25 -32.5t-58.5 -53 t-91.5 -60.5t-128 -47t-164 -20q-152 0 -275.5 60.5t-198.5 180.5t-75 279zM221 1293q1 15 12 26l367 332q8 8 23 8q13 0 28 -12l363 -328q11 -11 12 -26t-8 -27l-117 -138q-9 -12 -24 -13t-27 9l-227 207l-226 -207q-11 -10 -26.5 -9t-24.5 13l-117 138q-9 12 -8 27z M414 641h329q-4 41 -44 78t-111 37q-59 0 -107 -27.5t-67 -87.5z" />
<glyph unicode="&#xeb;" horiz-adv-x="1128" d="M51 506q0 120 47 220.5t123 163.5t167.5 97.5t184.5 34.5q247 0 371.5 -135.5t124.5 -390.5q0 -15 -11 -26t-26 -11h-624q18 -91 78.5 -137t146.5 -46q40 0 81 11.5t70.5 28t53.5 33.5t36 29l13 11q24 28 47 2l129 -143q22 -25 4 -49q-8 -13 -25 -32.5t-58.5 -53 t-91.5 -60.5t-128 -47t-164 -20q-152 0 -275.5 60.5t-198.5 180.5t-75 279zM272 1284q0 57 39.5 97t96.5 40t97 -40t40 -97t-40 -96t-97 -39t-96.5 39t-39.5 96zM414 641h329q-4 41 -44 78t-111 37q-59 0 -107 -27.5t-67 -87.5zM659 1284q0 57 39.5 97t96.5 40t97 -40 t40 -97t-40 -96t-97 -39t-96.5 39t-39.5 96z" />
<glyph unicode="&#xec;" horiz-adv-x="671" d="M-159.5 1470q-1.5 15 7.5 27l150 178q11 12 26.5 14t26.5 -8l398 -360q12 -11 13 -26t-9 -27l-119 -142q-10 -12 -25.5 -13.5t-27.5 7.5l-428 326q-11 9 -12.5 24zM51 31v213q0 30 31 30h90v459h-90q-31 0 -31 31v213q0 31 31 31h403q31 0 31 -31v-703h74q31 0 31 -30 v-213q0 -31 -31 -31h-508q-31 0 -31 31z" />
<glyph unicode="&#xed;" horiz-adv-x="671" d="M51 31v213q0 30 31 30h90v459h-90q-31 0 -31 31v213q0 31 31 31h403q31 0 31 -31v-703h74q31 0 31 -30v-213q0 -31 -31 -31h-508q-31 0 -31 31zM190 1293q1 15 13 26l397 360q12 9 27.5 7.5t25.5 -13.5l150 -178q9 -12 8 -27t-12 -24l-428 -326q-12 -9 -28 -7.5t-26 13.5 l-118 142q-10 12 -9 27z" />
<glyph unicode="&#xee;" horiz-adv-x="671" d="M-67 1293q1 15 12 26l366 332q8 8 23 8q13 0 28 -12l363 -328q11 -11 12 -26t-8 -27l-117 -138q-9 -12 -24 -13t-27 9l-227 207l-225 -207q-11 -10 -27 -9t-25 13l-116 138q-9 12 -8 27zM51 31v213q0 30 31 30h90v459h-90q-31 0 -31 31v213q0 31 31 31h403q31 0 31 -31 v-703h74q31 0 31 -30v-213q0 -31 -31 -31h-508q-31 0 -31 31z" />
<glyph unicode="&#xef;" horiz-adv-x="671" d="M10 1284q0 57 39 97t96 40t97.5 -40t40.5 -97t-40.5 -96t-97.5 -39t-96 39t-39 96zM51 31v213q0 30 31 30h90v459h-90q-31 0 -31 31v213q0 31 31 31h403q31 0 31 -31v-703h74q31 0 31 -30v-213q0 -31 -31 -31h-508q-31 0 -31 31zM397 1284q0 57 39 97t96 40t97.5 -40 t40.5 -97t-40.5 -96t-97.5 -39t-96 39t-39 96z" />
<glyph unicode="&#xf0;" horiz-adv-x="1308" d="M53 492q0 107 29.5 194t90.5 153t162.5 102t237.5 36q126 0 275 -57q-10 50 -35 106l-37 -35q-10 -11 -26 -11t-27 11l-84 86q-11 11 -11 26t11 25l20 21q-24 6 -55 6q-75 0 -127.5 -38t-52.5 -79q0 -30 -31 -30h-291q-30 0 -30 30q0 202 133 323.5t397 121.5 q176 0 318 -74l81 80q11 11 27 11t27 -11l84 -86q11 -11 11 -26t-11 -25l-64 -62q182 -195 182 -547q0 -188 -46 -334t-129.5 -237.5t-194.5 -138t-246 -47.5q-142 1 -256 42t-185.5 111t-109 160t-37.5 193zM446 516q0 -89 50 -140.5t147 -51.5q88 0 148 81t71 250 q-94 41 -184 41q-232 0 -232 -180z" />
<glyph unicode="&#xf1;" d="M51 31v213q0 30 31 30h90v459h-90q-31 0 -31 31v213q0 31 31 31h352q31 0 31 -31v-127h8q2 7 7 18.5t27 41t51 52.5t83 41.5t119 18.5q161 0 248.5 -100t89.5 -263l4 -385h92q31 0 31 -30v-213q0 -31 -31 -31h-336q-47 0 -73.5 26.5t-26.5 73.5v439q0 35 -2 58.5t-9.5 48 t-21 39t-37 23.5t-57.5 9q-33 0 -57.5 -12.5t-36 -32.5t-16 -32t-5.5 -22v-344h74q31 0 31 -30v-213q0 -31 -31 -31h-508q-31 0 -31 31zM182 1149q0 143 60.5 227t181.5 84q50 0 92 -15.5t70 -37.5t51.5 -44t49.5 -37.5t52 -16.5q39 0 59.5 28.5t20.5 106.5q0 31 31 31h115 q30 0 30 -31q0 -147 -59.5 -230.5t-181.5 -83.5q-49 0 -91 14.5t-70 35t-52 41t-50 35t-53 14.5q-40 0 -60 -24t-20 -97q0 -31 -30 -31h-115q-31 0 -31 31z" />
<glyph unicode="&#xf2;" horiz-adv-x="1191" d="M51 506q0 235 149 375.5t396 140.5t396 -140.5t149 -375.5q0 -238 -146 -379t-401 -141q-253 0 -398 141t-145 379zM221 1470q-1 15 8 27l150 178q11 12 26.5 14t26.5 -8l397 -360q12 -11 13.5 -26t-8.5 -27l-119 -142q-10 -12 -25.5 -13.5t-27.5 7.5l-429 326 q-11 9 -12 24zM401 508q0 -105 51 -168.5t142 -63.5q92 0 144.5 63.5t52.5 168.5q0 102 -52.5 161.5t-142.5 59.5t-142.5 -59.5t-52.5 -161.5z" />
<glyph unicode="&#xf3;" horiz-adv-x="1191" d="M51 506q0 235 149 375.5t396 140.5t396 -140.5t149 -375.5q0 -238 -146 -379t-401 -141q-253 0 -398 141t-145 379zM397 1293q1 15 13 26l397 360q12 9 27.5 7.5t25.5 -13.5l150 -178q9 -12 8 -27t-12 -24l-428 -326q-12 -9 -28 -7.5t-26 13.5l-118 142q-10 12 -9 27z M401 508q0 -105 51 -168.5t142 -63.5q92 0 144.5 63.5t52.5 168.5q0 102 -52.5 161.5t-142.5 59.5t-142.5 -59.5t-52.5 -161.5z" />
<glyph unicode="&#xf4;" horiz-adv-x="1191" d="M51 506q0 235 149 375.5t396 140.5t396 -140.5t149 -375.5q0 -238 -146 -379t-401 -141q-253 0 -398 141t-145 379zM221 1293q1 15 12 26l367 332q8 8 23 8q13 0 28 -12l363 -328q11 -11 12 -26t-8 -27l-117 -138q-9 -12 -24 -13t-27 9l-227 207l-226 -207 q-11 -10 -26.5 -9t-24.5 13l-117 138q-9 12 -8 27zM401 508q0 -105 51 -168.5t142 -63.5q92 0 144.5 63.5t52.5 168.5q0 102 -52.5 161.5t-142.5 59.5t-142.5 -59.5t-52.5 -161.5z" />
<glyph unicode="&#xf5;" horiz-adv-x="1191" d="M51 506q0 235 149 375.5t396 140.5t396 -140.5t149 -375.5q0 -238 -146 -379t-401 -141q-253 0 -398 141t-145 379zM231 1149q0 143 60.5 227t181.5 84q50 0 92 -15.5t70 -37.5t51.5 -44t49.5 -37.5t52 -16.5q39 0 59.5 28.5t20.5 106.5q0 31 31 31h115q30 0 30 -31 q0 -147 -59.5 -230.5t-181.5 -83.5q-49 0 -91 14.5t-70 35t-52 41t-50 35t-53 14.5q-40 0 -59.5 -24t-19.5 -97q0 -31 -31 -31h-115q-31 0 -31 31zM401 508q0 -105 51 -168.5t142 -63.5q92 0 144.5 63.5t52.5 168.5q0 102 -52.5 161.5t-142.5 59.5t-142.5 -59.5 t-52.5 -161.5z" />
<glyph unicode="&#xf6;" horiz-adv-x="1191" d="M51 506q0 235 149 375.5t396 140.5t396 -140.5t149 -375.5q0 -238 -146 -379t-401 -141q-253 0 -398 141t-145 379zM276 1284q0 57 39.5 97t96.5 40t97 -40t40 -97t-40 -96t-97 -39t-96.5 39t-39.5 96zM401 508q0 -105 51 -168.5t142 -63.5q92 0 144.5 63.5t52.5 168.5 q0 102 -52.5 161.5t-142.5 59.5t-142.5 -59.5t-52.5 -161.5zM664 1284q0 57 39 97t96 40t97 -40t40 -97t-40 -96t-97 -39t-96 39t-39 96z" />
<glyph unicode="&#xf7;" horiz-adv-x="870" d="M51 412v250q0 15 11 25.5t26 10.5h694q15 0 26 -10.5t11 -25.5v-250q0 -15 -11 -26t-26 -11h-694q-15 0 -26 11t-11 26zM330 238q0 47 33.5 80.5t80.5 33.5t81 -33.5t34 -80.5t-34 -81t-81 -34t-80.5 34t-33.5 81zM330 848q0 47 33.5 81t80.5 34t81 -34t34 -81t-34 -81 t-81 -34t-80.5 34t-33.5 81z" />
<glyph unicode="&#xf8;" horiz-adv-x="1191" d="M51 506q0 235 149 375.5t396 140.5q72 0 147 -16l2 6q9 30 39 30h162q16 0 23 -8.5t0 -21.5l-41 -80q101 -67 157 -176.5t56 -249.5q0 -238 -146 -379t-401 -141q-74 0 -139 12l-15 -29q-17 -30 -39 -30h-161q-32 0 -23 30l51 101q-105 66 -161 178t-56 258zM401 508 q0 -72 25 -127l176 348h-6q-90 0 -142.5 -59.5t-52.5 -161.5zM596 276h6q88 1 138.5 65t50.5 167q0 56 -21 110z" />
<glyph unicode="&#xf9;" d="M51 764v213q0 31 31 31h336q47 0 73.5 -27t26.5 -74v-438q0 -35 2 -58.5t9.5 -48t21 -39t37 -23.5t57.5 -9q33 0 58 12.5t36 31t16 32t5 22.5v344h-74q-31 0 -31 31v213q0 31 31 31h387q31 0 31 -31v-703h90q31 0 31 -30v-213q0 -31 -31 -31h-285q-47 0 -73.5 26.5 t-26.5 73.5v58h-6q-1 -7 -5 -18.5t-22.5 -41t-45 -52.5t-78.5 -41.5t-117 -18.5q-163 0 -259 101t-98 261l-4 385h-92q-31 0 -31 31zM174 1470q-1 15 8 27l150 178q11 12 26.5 14t26.5 -8l397 -360q12 -11 13 -26t-9 -27l-118 -142q-10 -12 -26 -13.5t-28 7.5l-428 326 q-11 9 -12 24z" />
<glyph unicode="&#xfa;" d="M51 764v213q0 31 31 31h336q47 0 73.5 -27t26.5 -74v-438q0 -35 2 -58.5t9.5 -48t21 -39t37 -23.5t57.5 -9q33 0 58 12.5t36 31t16 32t5 22.5v344h-74q-31 0 -31 31v213q0 31 31 31h387q31 0 31 -31v-703h90q31 0 31 -30v-213q0 -31 -31 -31h-285q-47 0 -73.5 26.5 t-26.5 73.5v58h-6q-1 -7 -5 -18.5t-22.5 -41t-45 -52.5t-78.5 -41.5t-117 -18.5q-163 0 -259 101t-98 261l-4 385h-92q-31 0 -31 31zM310.5 1293q1.5 15 13.5 26l397 360q12 9 27.5 7.5t25.5 -13.5l150 -178q9 -12 8 -27t-12 -24l-428 -326q-12 -9 -28 -7.5t-26 13.5 l-119 142q-10 12 -8.5 27z" />
<glyph unicode="&#xfb;" d="M51 764v213q0 31 31 31h336q47 0 73.5 -27t26.5 -74v-438q0 -35 2 -58.5t9.5 -48t21 -39t37 -23.5t57.5 -9q33 0 58 12.5t36 31t16 32t5 22.5v344h-74q-31 0 -31 31v213q0 31 31 31h387q31 0 31 -31v-703h90q31 0 31 -30v-213q0 -31 -31 -31h-285q-47 0 -73.5 26.5 t-26.5 73.5v58h-6q-1 -7 -5 -18.5t-22.5 -41t-45 -52.5t-78.5 -41.5t-117 -18.5q-163 0 -259 101t-98 261l-4 385h-92q-31 0 -31 31zM187 1293q1 15 12 26l366 332q8 8 23 8q13 0 28 -12l363 -328q11 -11 12 -26t-8 -27l-117 -138q-9 -12 -24 -13t-27 9l-227 207l-226 -207 q-11 -10 -26.5 -9t-24.5 13l-116 138q-9 12 -8 27z" />
<glyph unicode="&#xfc;" d="M51 764v213q0 31 31 31h336q47 0 73.5 -27t26.5 -74v-438q0 -35 2 -58.5t9.5 -48t21 -39t37 -23.5t57.5 -9q33 0 58 12.5t36 31t16 32t5 22.5v344h-74q-31 0 -31 31v213q0 31 31 31h387q31 0 31 -31v-703h90q31 0 31 -30v-213q0 -31 -31 -31h-285q-47 0 -73.5 26.5 t-26.5 73.5v58h-6q-1 -7 -5 -18.5t-22.5 -41t-45 -52.5t-78.5 -41.5t-117 -18.5q-163 0 -259 101t-98 261l-4 385h-92q-31 0 -31 31zM270 1284q0 57 39.5 97t96.5 40t97 -40t40 -97t-40 -96t-97 -39t-96.5 39t-39.5 96zM657 1284q0 57 39.5 97t96.5 40t97 -40t40 -97 t-40 -96t-97 -39t-96.5 39t-39.5 96z" />
<glyph unicode="&#xfd;" horiz-adv-x="1339" d="M51 764v213q0 31 31 31h489q31 0 31 -31v-213q0 -31 -31 -31h-39l121 -448h4l142 448h-64q-30 0 -30 31v213q0 31 30 31h522q31 0 31 -31v-213q0 -31 -31 -31h-104l-270 -801q-21 -64 -37 -106t-38 -90t-43.5 -78t-50.5 -60t-62 -46.5t-76 -26.5t-95 -10q-62 0 -114 12 t-92 35t-61 39t-50 42q-7 6 -10 9q-31 31 -15 49l131 168q18 21 45 0q3 -2 10.5 -9t10.5 -9.5t11 -8.5t13.5 -8t14.5 -6t18.5 -5.5t22 -3t26.5 -1.5q25 0 44 9.5t31.5 28.5t19.5 34.5t16 41.5l22 68h-71q-42 0 -63 18t-35 60l-224 655h-100q-31 0 -31 31zM474 1293 q1 15 13 26l398 360q12 9 27.5 7.5t25.5 -13.5l149 -178q9 -12 8 -27t-12 -24l-428 -326q-12 -9 -27.5 -7.5t-25.5 13.5l-119 142q-10 12 -9 27z" />
<glyph unicode="&#xfe;" horiz-adv-x="1269" d="M51 -221q0 31 31 31h92v1386h-80q-31 0 -31 31v213q0 30 31 30h393q31 0 31 -30v-492q94 76 240 76q205 0 333 -137t128 -389q0 -229 -122.5 -370.5t-334.5 -141.5q-52 0 -98 9.5t-74.5 22.5t-49.5 26t-30 22l-8 10h-4q4 -62 4 -82v-184h147q31 0 31 -31v-213 q0 -31 -31 -31h-567q-31 0 -31 31v213zM506 498q0 -112 53 -168t129 -56q86 0 138.5 59.5t52.5 162.5q0 106 -50 169.5t-141 63.5q-81 0 -131.5 -58t-50.5 -173z" />
<glyph unicode="&#xff;" horiz-adv-x="1339" d="M51 764v213q0 31 31 31h489q31 0 31 -31v-213q0 -31 -31 -31h-39l121 -448h4l142 448h-64q-30 0 -30 31v213q0 31 30 31h522q31 0 31 -31v-213q0 -31 -31 -31h-104l-270 -801q-21 -64 -37 -106t-38 -90t-43.5 -78t-50.5 -60t-62 -46.5t-76 -26.5t-95 -10q-62 0 -114 12 t-92 35t-61 39t-50 42q-7 6 -10 9q-31 31 -15 49l131 168q18 21 45 0q3 -2 10.5 -9t10.5 -9.5t11 -8.5t13.5 -8t14.5 -6t18.5 -5.5t22 -3t26.5 -1.5q25 0 44 9.5t31.5 28.5t19.5 34.5t16 41.5l22 68h-71q-42 0 -63 18t-35 60l-224 655h-100q-31 0 -31 31zM332 1284 q0 57 39 97t96 40t97 -40t40 -97t-40 -96t-97 -39t-96 39t-39 96zM719 1284q0 57 39 97t96 40t97 -40t40 -97t-40 -96t-97 -39t-96 39t-39 96z" />
<glyph unicode="&#x152;" horiz-adv-x="1910" d="M51 743q0 143 42.5 264t114 204.5t166.5 142.5t199.5 87t214.5 29h1041q31 0 31 -30v-473q0 -31 -31 -31h-252q-31 0 -31 31v194h-395v-272h319q31 0 31 -31v-248q0 -30 -31 -30h-319v-271h393v195q0 31 31 31h254q31 0 31 -31v-473q0 -31 -31 -31h-1032 q-209 0 -378.5 92t-268.5 263t-99 388zM442 737q0 -173 97.5 -291.5t248.5 -121.5v819q-152 -3 -249 -112.5t-97 -293.5z" />
<glyph unicode="&#x153;" horiz-adv-x="1867" d="M51 506q0 235 149 375.5t396 140.5q227 0 375 -123q73 59 162.5 91t179.5 32q247 0 371 -134.5t124 -389.5q0 -15 -10.5 -26t-25.5 -11h-625q18 -92 78.5 -138.5t146.5 -46.5q40 0 81 11.5t70.5 28t53.5 33.5t37 29l12 11q24 28 47 2l129 -143q22 -25 4 -49 q-8 -13 -25 -32.5t-58.5 -53t-91.5 -60.5t-128 -47t-164 -20q-221 0 -368 120q-142 -120 -377 -120q-253 0 -398 141t-145 379zM401 508q0 -105 51 -168.5t142 -63.5q90 0 143.5 61t53.5 161q0 109 -52.5 170t-142.5 61t-142.5 -59.5t-52.5 -161.5zM1153 641h330 q-4 41 -44.5 78t-111.5 37q-59 0 -107 -27.5t-67 -87.5z" />
<glyph unicode="&#x178;" horiz-adv-x="1615" d="M51 1192v248q0 30 31 30h625q30 0 30 -30v-248q0 -31 -30 -31h-103l191 -299h20l195 299h-101q-30 0 -30 31v248q0 30 30 30h625q31 0 31 -30v-248q0 -31 -31 -31h-139q-391 -570 -406 -588v-264h131q31 0 31 -30v-248q0 -31 -31 -31h-624q-31 0 -31 31v248q0 30 31 30 h131v256q-29 37 -406 596h-139q-31 0 -31 31zM444 1747q0 57 39.5 97t96.5 40t97 -40t40 -97t-40 -96t-97 -39t-96.5 39t-39.5 96zM831 1747q0 57 39.5 97t96.5 40t97 -40t40 -97t-40 -96t-97 -39t-96.5 39t-39.5 96z" />
<glyph unicode="&#x2c6;" horiz-adv-x="907" d="M51 1293q1 15 12 26l367 332q8 8 23 8q13 0 28 -12l363 -328q11 -11 12 -26t-8 -27l-117 -138q-9 -12 -24 -13t-27 9l-227 207l-226 -207q-11 -10 -26.5 -9t-24.5 13l-117 138q-9 12 -8 27z" />
<glyph unicode="&#x2dc;" horiz-adv-x="915" d="M51 1149q0 143 60.5 227t181.5 84q50 0 92 -15.5t70 -37.5t51.5 -44t49.5 -37.5t52 -16.5q39 0 59.5 28.5t20.5 106.5q0 31 31 31h115q30 0 30 -31q0 -147 -59.5 -230.5t-181.5 -83.5q-49 0 -91 14.5t-70 35t-52 41t-50 35t-53 14.5q-40 0 -60 -24t-20 -97q0 -31 -30 -31 h-115q-31 0 -31 31z" />
<glyph unicode="&#x2000;" horiz-adv-x="1076" />
<glyph unicode="&#x2001;" horiz-adv-x="2152" />
<glyph unicode="&#x2002;" horiz-adv-x="1076" />
<glyph unicode="&#x2003;" horiz-adv-x="2152" />
<glyph unicode="&#x2004;" horiz-adv-x="717" />
<glyph unicode="&#x2005;" horiz-adv-x="538" />
<glyph unicode="&#x2006;" horiz-adv-x="358" />
<glyph unicode="&#x2007;" horiz-adv-x="358" />
<glyph unicode="&#x2008;" horiz-adv-x="269" />
<glyph unicode="&#x2009;" horiz-adv-x="430" />
<glyph unicode="&#x200a;" horiz-adv-x="119" />
<glyph unicode="&#x2010;" horiz-adv-x="870" d="M51 420v250q0 15 11 26t26 11h694q15 0 26 -11t11 -26v-250q0 -15 -11 -26t-26 -11h-694q-15 0 -26 11t-11 26z" />
<glyph unicode="&#x2011;" horiz-adv-x="870" d="M51 420v250q0 15 11 26t26 11h694q15 0 26 -11t11 -26v-250q0 -15 -11 -26t-26 -11h-694q-15 0 -26 11t-11 26z" />
<glyph unicode="&#x2012;" horiz-adv-x="870" d="M51 420v250q0 15 11 26t26 11h694q15 0 26 -11t11 -26v-250q0 -15 -11 -26t-26 -11h-694q-15 0 -26 11t-11 26z" />
<glyph unicode="&#x2013;" horiz-adv-x="1171" d="M51 420v250q0 15 11 26t26 11h995q15 0 26 -11t11 -26v-250q0 -15 -11 -26t-26 -11h-995q-15 0 -26 11t-11 26z" />
<glyph unicode="&#x2014;" horiz-adv-x="1828" d="M51 420v250q0 15 11 26t26 11h1653q15 0 26 -11t11 -26v-250q0 -15 -11 -26t-26 -11h-1653q-15 0 -26 11t-11 26z" />
<glyph unicode="&#x2018;" horiz-adv-x="421" d="M51 1432q0 145 53 215.5t162 70.5q17 0 17 -12v-72q0 -14 -17 -14q-35 0 -59.5 -21t-24.5 -57l4 -31q12 7 35 7q63 0 106.5 -43.5t43.5 -106.5t-43.5 -107t-106.5 -44q-77 0 -123.5 57.5t-46.5 157.5z" />
<glyph unicode="&#x2019;" horiz-adv-x="421" d="M51 1370q0 63 43.5 107.5t106.5 44.5q77 0 123.5 -57.5t46.5 -157.5q0 -287 -215 -287q-17 0 -17 12v72q0 14 17 14q35 0 59.5 21t24.5 57l-4 31q-12 -6 -35 -6q-63 0 -106.5 43t-43.5 106z" />
<glyph unicode="&#x201a;" horiz-adv-x="421" d="M51 133q0 63 43.5 107.5t106.5 44.5q77 0 123.5 -57.5t46.5 -157.5q0 -287 -215 -287q-17 0 -17 12v72q0 14 17 14q35 0 59.5 21t24.5 57l-4 31q-12 -6 -35 -6q-63 0 -106.5 43t-43.5 106z" />
<glyph unicode="&#x201c;" horiz-adv-x="817" d="M51 1432q0 145 53 215.5t162 70.5q17 0 17 -12v-72q0 -14 -17 -14q-35 0 -59.5 -21t-24.5 -57l4 -31q12 7 35 7q63 0 106.5 -43.5t43.5 -106.5t-43.5 -107t-106.5 -44q-77 0 -123.5 57.5t-46.5 157.5zM446 1432q0 286 216 286q16 0 16 -12v-72q0 -14 -16 -14 q-35 0 -59.5 -21t-24.5 -57l4 -31q11 7 34 7q63 0 106.5 -43.5t43.5 -106.5t-43.5 -107t-106.5 -44q-77 0 -123.5 57.5t-46.5 157.5z" />
<glyph unicode="&#x201d;" horiz-adv-x="817" d="M51 1370q0 63 43.5 107.5t106.5 44.5q77 0 123.5 -57.5t46.5 -157.5q0 -287 -215 -287q-17 0 -17 12v72q0 14 17 14q35 0 59.5 21t24.5 57l-4 31q-12 -6 -35 -6q-63 0 -106.5 43t-43.5 106zM446 1370q0 63 43.5 107.5t106.5 44.5q77 0 123.5 -57.5t46.5 -157.5 q0 -287 -215 -287q-16 0 -16 12v72q0 14 16 14q35 0 59.5 21t24.5 57l-4 31q-12 -6 -35 -6q-63 0 -106.5 43t-43.5 106z" />
<glyph unicode="&#x201e;" horiz-adv-x="817" d="M51 133q0 63 43.5 107.5t106.5 44.5q77 0 123.5 -57.5t46.5 -157.5q0 -287 -215 -287q-17 0 -17 12v72q0 14 17 14q35 0 59.5 21t24.5 57l-4 31q-12 -6 -35 -6q-63 0 -106.5 43t-43.5 106zM446 133q0 63 43.5 107.5t106.5 44.5q77 0 123.5 -57.5t46.5 -157.5 q0 -287 -215 -287q-16 0 -16 12v72q0 14 16 14q35 0 59.5 21t24.5 57l-4 31q-12 -6 -35 -6q-63 0 -106.5 43t-43.5 106z" />
<glyph unicode="&#x2022;" horiz-adv-x="485" d="M51 686q0 90 50.5 144.5t140.5 54.5q87 0 139.5 -55t52.5 -144q0 -91 -52 -144t-140 -53q-91 0 -141 52.5t-50 144.5z" />
<glyph unicode="&#x2026;" horiz-adv-x="1101" d="M51 133q0 63 43.5 107.5t106.5 44.5t107 -44.5t44 -107.5t-44 -106t-107 -43t-106.5 43t-43.5 106zM403 133q0 63 43.5 107.5t106.5 44.5t107.5 -44.5t44.5 -107.5t-44.5 -106t-107.5 -43t-106.5 43t-43.5 106zM750 133q0 63 43 107.5t106 44.5t107.5 -44.5t44.5 -107.5 t-44.5 -106t-107.5 -43t-106 43t-43 106z" />
<glyph unicode="&#x202f;" horiz-adv-x="430" />
<glyph unicode="&#x205f;" horiz-adv-x="538" />
<glyph unicode="&#x20ac;" horiz-adv-x="1585" d="M51 496v163q0 31 31 31h113v74h-113q-31 0 -31 31v163q0 31 31 31h143q43 161 144 274.5t232.5 166.5t283.5 53q91 0 178 -20t146 -48.5t105.5 -56.5t68.5 -48l22 -20q24 -18 6 -43l-158 -192q-18 -26 -43 -4q-3 3 -9.5 9t-32 21t-56.5 26t-85 20.5t-116 9.5 q-183 0 -270 -148h453q30 0 30 -31v-163q0 -31 -30 -31h-508v-27q0 -33 2 -47h370q31 0 31 -31v-163q0 -31 -31 -31h-280q101 -123 262 -123q127 0 208.5 31.5t160.5 95.5q15 11 20.5 13t20.5 -5l168 -203q23 -30 8 -45q-45 -50 -92.5 -87.5t-119.5 -76t-171 -59t-219 -20.5 q-243 0 -428.5 126t-259.5 353h-154q-31 0 -31 31z" />
<glyph unicode="&#x2122;" horiz-adv-x="2107" d="M51 1139v311q0 9 7 14.5t16 5.5h792q9 0 16 -5.5t7 -14.5v-311q0 -9 -7 -15t-16 -6h-161q-9 0 -15 6t-6 15v127h-92v-471h76q9 0 15.5 -7t6.5 -16v-160q0 -9 -6.5 -14.5t-15.5 -5.5h-389q-21 0 -21 20v160q0 9 6 16t15 7h75v471h-98v-127q0 -9 -7 -15t-16 -6h-159 q-9 0 -16 6t-7 15zM950 610v166q0 19 19 19h78v471h-78q-19 0 -19 18v168q0 18 19 18h288q65 0 89 -67l100 -258l55 -152h6q25 70 58 152l102 258q24 67 88 67h283q18 0 18 -18v-168q0 -18 -18 -18h-78v-471h78q18 0 18 -19v-166q0 -18 -18 -18h-359q-18 0 -18 18v166 q0 19 18 19h43v282h-4l-127 -360q-22 -60 -88 -60q-64 0 -86 60l-127 360h-4v-282h43q19 0 19 -19v-166q0 -18 -19 -18h-360q-19 0 -19 18z" />
<glyph unicode="&#xe000;" horiz-adv-x="1003" d="M0 0v1004h1004v-1004h-1004z" />
</font>
</defs>
</svg>
